<?xml version="1.0" encoding="utf-8"?>
<!-- Generator: Adobe Illustrator 19.2.1, SVG Export Plug-In . SVG Version: 6.00 Build 0)  -->
<svg version="1.1" id="Layer_1" xmlns="http://www.w3.org/2000/svg" xmlns:xlink="http://www.w3.org/1999/xlink" x="0px" y="0px"
	 viewBox="0 0 77.9 78.6" style="enable-background:new 0 0 77.9 78.6;" xml:space="preserve">
<style type="text/css">
	.st0{fill:#FFFFFF;}
	.st1{fill:#C61D23;}
	.st2{clip-path:url(#SVGID_2_);fill:#010101;}
</style>
<g>
	<g>
		<circle class="st0" cx="39" cy="39.7" r="37.3"/>
		<path d="M39,78.3C17.7,78.3,0.3,61,0.3,39.7C0.3,18.4,17.7,1.1,39,1.1c21.3,0,38.6,17.3,38.6,38.6C77.6,61,60.3,78.3,39,78.3z
			 M39,3.7c-19.9,0-36,16.2-36,36c0,19.9,16.2,36,36,36c19.9,0,36-16.2,36-36C75,19.8,58.8,3.7,39,3.7z"/>
	</g>
	<g>
		<path d="M39,77.3c-20.8,0-37.7-16.9-37.7-37.7C1.3,18.9,18.2,2,39,2c20.8,0,37.7,16.9,37.7,37.7C76.6,60.4,59.7,77.3,39,77.3z
			 M39,2.7c-20.4,0-37,16.6-37,37c0,20.4,16.6,37,37,37c20.4,0,37-16.6,37-37C76,19.3,59.4,2.7,39,2.7z"/>
		<path d="M39,78.6c-21.5,0-39-17.5-39-39c0-21.5,17.5-39,39-39c21.5,0,39,17.5,39,39C77.9,61.2,60.4,78.6,39,78.6z M39,4
			C19.3,4,3.2,20,3.2,39.7c0,19.7,16,35.7,35.7,35.7c19.7,0,35.7-16,35.7-35.7C74.7,20,58.6,4,39,4z"/>
	</g>
</g>
<path class="st1" d="M58.2,56.2c4.4-4.1,7.5-10.4,7.5-17.3c0-6.9-2.3-12.2-7.5-17.3l3.3-3c7.2,6.5,9.5,13.3,9.5,20.3
	c0,6.9-2.3,14.1-9.5,20.3L58.2,56.2z"/>
<g>
	<defs>
		<rect id="SVGID_1_" x="15.9" y="13.6" width="45.3" height="50.6"/>
	</defs>
	<clipPath id="SVGID_2_">
		<use xlink:href="#SVGID_1_"  style="overflow:visible;"/>
	</clipPath>
	<path class="st2" d="M32.4,62.2c0,1.1-0.9,2-2,2h-6.6c-4.4,0-7.9-3.5-7.9-7.9V21.5c0-4.4,3.5-7.9,7.9-7.9h24.3
		c4.4,0,7.9,3.5,7.9,7.9v12.2c0,1.1-0.9,2-2,2c-1.1,0-2-0.9-2-2V21.5c0-2.2-1.8-4-4-4H23.8c-2.2,0-4,1.8-4,4v34.8c0,2.2,1.8,4,4,4
		h6.6C31.5,60.2,32.4,61.1,32.4,62.2 M46.1,25.5H25.7c-1.1,0-2,0.9-2,2c0,1.1,0.9,2,2,2h20.4c1.1,0,2-0.9,2-2
		C48.1,26.3,47.2,25.5,46.1,25.5 M48.1,35.3c0-1.1-0.9-2-2-2H25.7c-1.1,0-2,0.9-2,2c0,1.1,0.9,2,2,2h20.4
		C47.2,37.3,48.1,36.4,48.1,35.3 M25.7,41.3c-1.1,0-2,0.9-2,2c0,1.1,0.9,2,2,2h12.4c1.1,0,2-0.9,2-2c0-1.1-0.9-2-2-2H25.7z
		 M59.5,50.6L48.7,61.4c-0.2,0.2-0.5,0.4-0.9,0.5l-8,2.2c-0.2,0-0.4,0.1-0.5,0.1c-0.5,0-1-0.2-1.4-0.6c-0.5-0.5-0.7-1.3-0.5-2
		l2.4-7.8c0.1-0.3,0.3-0.6,0.5-0.8l10.8-10.8c2.3-2.3,6.1-2.3,8.4,0C61.8,44.5,61.8,48.3,59.5,50.6 M53.5,51l-2.8-2.8l-7.3,7.3
		l-1.2,3.9l4-1.1L53.5,51z M56.7,45c-0.8-0.8-2-0.8-2.8,0l-0.4,0.4l2.8,2.8l0.4-0.4C57.5,47,57.5,45.8,56.7,45"/>
</g>
</svg>
