<?xml version="1.0" encoding="utf-8"?>
<!-- Generator: Adobe Illustrator 19.2.1, SVG Export Plug-In . SVG Version: 6.00 Build 0)  -->
<svg version="1.1" id="Layer_1" xmlns="http://www.w3.org/2000/svg" xmlns:xlink="http://www.w3.org/1999/xlink" x="0px" y="0px"
	 viewBox="0 0 79.7 79.8" style="enable-background:new 0 0 79.7 79.8;" xml:space="preserve">
<style type="text/css">
	.st0{fill:#FFFFFF;}
	.st1{fill:#C61D23;}
	.st2{fill:#010101;}
</style>
<g>
	<g>
		<circle class="st0" cx="40.2" cy="40.3" r="37.3"/>
		<path d="M40.2,78.9c-21.3,0-38.6-17.3-38.6-38.6C1.6,19,18.9,1.6,40.2,1.6c21.3,0,38.6,17.3,38.6,38.6
			C78.8,61.6,61.5,78.9,40.2,78.9z M40.2,4.2c-19.9,0-36,16.2-36,36c0,19.9,16.2,36,36,36c19.9,0,36-16.2,36-36
			C76.2,20.4,60.1,4.2,40.2,4.2z"/>
	</g>
	<g>
		<path d="M40.2,77.9C19.4,77.9,2.5,61,2.5,40.3S19.4,2.6,40.2,2.6c20.8,0,37.7,16.9,37.7,37.7S61,77.9,40.2,77.9z M40.2,3.3
			c-20.4,0-37,16.6-37,37c0,20.4,16.6,37,37,37c20.4,0,37-16.6,37-37C77.2,19.9,60.6,3.3,40.2,3.3z"/>
		<path d="M40.2,79.2c-21.5,0-39-17.5-39-39c0-21.5,17.5-39,39-39c21.5,0,39,17.5,39,39C79.2,61.7,61.7,79.2,40.2,79.2z M40.2,4.6
			c-19.7,0-35.7,16-35.7,35.7C4.5,60,20.5,76,40.2,76c19.7,0,35.7-16,35.7-35.7C75.9,20.6,59.9,4.6,40.2,4.6z"/>
	</g>
</g>
<path class="st1" d="M59.5,56.8c4.4-4.1,7.5-10.4,7.5-17.3c0-6.9-2.3-12.2-7.5-17.3l3.3-3c7.2,6.5,9.5,13.3,9.5,20.3
	c0,6.9-2.3,14.1-9.5,20.3L59.5,56.8z"/>
<g>
	<path class="st2" d="M43.5,57.4h-3.9c-0.6,0-1,0.5-1,1.1c0,0.6,0.5,1.1,1,1.1h3.9c0.6,0,1.1,0.5,1.1,1.2S44.1,62,43.5,62H32.9
		c-1.6,0-3.1-0.8-4.1-2.1l-2.5-3.3c-1.4-1.8-3.3-2.8-5.4-2.9v-6.6h3.7c1.8,0,3.6,0.8,4.9,2.2l5.5,5.8c0.4,0.4,0.4,1.1,0,1.5
		c-0.4,0.4-1,0.5-1.4,0.1l-4.3-4.3c-0.4-0.4-1.1-0.4-1.4,0.1c-0.4,0.5-0.4,1.2,0.1,1.6l4.3,4.3c0.6,0.6,1.3,0.9,2,0.9
		c0.8,0,1.6-0.4,2.2-1.1c1.1-1.3,1-3.4-0.1-4.6l-5.5-5.8c-1.7-1.8-3.9-2.8-6.3-2.8h-3.9c-0.4-1-1.3-1.7-2.3-1.7h-4.8
		c-0.6,0-1,0.5-1,1.1v8.1c0,0.6,0.5,1.1,1,1.1s1-0.5,1-1.1v-7h3.8c0.3,0,0.5,0.2,0.5,0.5v8.9c0,0.3-0.2,0.5-0.5,0.5h-1.1
		c-0.6,0-1,0.5-1,1.1c0,0.6,0.5,1.1,1,1.1h1.1c1.1,0,2-0.7,2.3-1.7c1.6,0,3.1,0.8,4.1,2.1l2.5,3.3c1.4,1.9,3.5,2.9,5.7,2.9h10.6
		c1.7,0,3.1-1.5,3.1-3.4S45.2,57.4,43.5,57.4z"/>
	<path d="M43.5,64.8H32.9c-2.4,0-4.6-1.1-6.1-3.1l-2.5-3.3c-0.8-1.1-2-1.8-3.3-1.9c-0.5,1.1-1.5,1.7-2.6,1.7h-1.1
		c-0.8,0-1.5-0.7-1.5-1.6c0-0.9,0.7-1.6,1.5-1.6h1.1l0-8.9l-3.2,0v6.5c0,0.9-0.7,1.6-1.5,1.6c-0.8,0-1.5-0.7-1.5-1.6v-8.1
		c0-0.9,0.7-1.6,1.5-1.6h4.8c1.1,0,2.1,0.7,2.6,1.7h3.6c2.5,0,4.9,1,6.7,3l5.5,5.8c1.3,1.4,1.4,3.8,0.1,5.3
		c-0.7,0.8-1.6,1.2-2.6,1.2c-0.9,0-1.7-0.4-2.4-1l-4.3-4.3c-0.6-0.6-0.6-1.6-0.1-2.2c0.5-0.7,1.6-0.7,2.2-0.1l4.3,4.3
		c0.2,0.2,0.5,0.2,0.7,0c0.2-0.2,0.2-0.6,0-0.9l-5.5-5.8c-1.2-1.3-2.8-2-4.5-2h-3.2v5.6c2.1,0.2,4,1.3,5.3,3.1l2.5,3.3
		c0.9,1.2,2.3,1.9,3.7,1.9h10.6c0.3,0,0.6-0.3,0.6-0.7c0-0.4-0.3-0.7-0.6-0.7h-3.9c-0.8,0-1.5-0.7-1.5-1.6s0.7-1.6,1.5-1.6h3.9
		c2,0,3.6,1.8,3.6,3.9C47.1,63,45.5,64.8,43.5,64.8z M20.3,55.4l0.4,0c1.7,0,3.4,0.9,4.5,2.3l2.5,3.3c1.3,1.7,3.2,2.7,5.3,2.7h10.6
		c1.4,0,2.6-1.3,2.6-2.9c0-1.6-1.2-2.9-2.6-2.9h-3.9c-0.3,0-0.5,0.3-0.5,0.6c0,0.3,0.2,0.6,0.5,0.6h3.9c0.9,0,1.6,0.8,1.6,1.7
		c0,0.9-0.7,1.7-1.6,1.7H32.9c-1.7,0-3.4-0.8-4.5-2.3l-2.5-3.3c-1.3-1.7-3.1-2.6-5.1-2.7l-0.5,0v-7.6h4.2c2,0,3.8,0.8,5.3,2.3
		l5.5,5.8c0.6,0.6,0.6,1.6,0.1,2.2c-0.5,0.6-1.6,0.7-2.1,0.1L29,52.7c-0.2-0.2-0.5-0.2-0.7,0c-0.2,0.3-0.2,0.7,0,0.9l4.3,4.3
		c1,1,2.6,0.9,3.5-0.2c0.9-1.1,0.9-2.9-0.1-4L30.5,48c-1.6-1.7-3.7-2.6-5.9-2.6h-4.3l-0.1-0.3c-0.3-0.8-1-1.4-1.8-1.4h-4.8
		c-0.3,0-0.5,0.3-0.5,0.6v8.1c0,0.3,0.2,0.6,0.5,0.6s0.5-0.3,0.5-0.6v-7.5h4.3c0.5,0,1,0.5,1,1v8.9c0,0.6-0.4,1-1,1h-1.1
		c-0.3,0-0.5,0.3-0.5,0.6c0,0.3,0.2,0.6,0.5,0.6h1.1c0.8,0,1.5-0.5,1.9-1.4L20.3,55.4z"/>
</g>
<g>
	<path class="st2" d="M63.4,26.4c-0.6,0-1,0.5-1,1.1V35h-3.8c-0.3,0-0.5-0.2-0.5-0.5v-8.9c0-0.3,0.2-0.5,0.5-0.5h1
		c0.6,0,1-0.5,1-1.1c0-0.6-0.5-1.1-1-1.1h-1c-1.1,0-2,0.7-2.3,1.7c-1.6,0-3.1-0.8-4.1-2.1L49.7,19c-1.4-1.9-3.5-2.9-5.7-2.9H33.5
		c-1.7,0-3.1,1.5-3.1,3.4c0,1.9,1.4,3.4,3.1,3.4h4.3c0.6,0,1-0.5,1-1.1s-0.5-1.1-1-1.1h-4.3c-0.6,0-1.1-0.5-1.1-1.2
		c0-0.7,0.5-1.2,1.1-1.2h10.6c1.6,0,3.1,0.8,4.1,2.1l2.5,3.3c1.4,1.8,3.3,2.8,5.4,2.9v6.6h-3.7c-1.8,0-3.6-0.8-4.9-2.2L42,25.3
		c-0.4-0.4-0.4-1.1,0-1.5c0.4-0.4,1-0.5,1.4-0.1l4.3,4.3c0.4,0.4,1.1,0.4,1.4-0.1c0.4-0.5,0.3-1.2-0.1-1.6l-4.3-4.3
		c-1.2-1.2-3.1-1.1-4.3,0.2c-1.1,1.3-1,3.4,0.1,4.6l5.5,5.8c1.7,1.8,3.9,2.8,6.3,2.8h3.9c0.4,1,1.3,1.7,2.3,1.7h4.8
		c0.6,0,1-0.5,1-1.1v-8.6C64.4,26.9,64,26.4,63.4,26.4z"/>
	<path d="M63.4,37.7h-4.8c-1.1,0-2.1-0.7-2.6-1.7h-3.6c-2.5,0-4.9-1-6.7-3l-5.5-5.8c-1.3-1.4-1.4-3.8-0.1-5.3
		c0.7-0.8,1.6-1.2,2.6-1.2c0.9,0,1.7,0.4,2.4,1l4.3,4.3c0.6,0.6,0.6,1.6,0.1,2.2c-0.5,0.7-1.6,0.7-2.2,0.1l-4.3-4.3
		c-0.3-0.3-0.5-0.1-0.7,0c-0.2,0.2-0.2,0.6,0,0.9l5.5,5.8c1.2,1.3,2.8,2,4.5,2h3.2v-5.6c-2.1-0.2-4-1.3-5.3-3.1l-2.5-3.3
		c-0.9-1.2-2.3-1.9-3.7-1.9H33.5c-0.3,0-0.6,0.3-0.6,0.7c0,0.4,0.3,0.7,0.6,0.7h4.3c0.8,0,1.5,0.7,1.5,1.6c0,0.9-0.7,1.6-1.5,1.6
		h-4.3c-2,0-3.6-1.8-3.6-3.9s1.6-3.9,3.6-3.9h10.6c2.4,0,4.6,1.1,6.1,3.1l2.5,3.3c0.8,1.1,2,1.8,3.3,1.9c0.5-1.1,1.5-1.7,2.6-1.7h1
		c0.8,0,1.5,0.7,1.5,1.6c0,0.9-0.7,1.6-1.5,1.6h-1l0,8.9l3.2,0v-6.9c0-0.9,0.7-1.6,1.5-1.6c0.8,0,1.5,0.7,1.5,1.6v8.6
		C64.9,37,64.2,37.7,63.4,37.7z M42.7,21.7c-0.7,0-1.4,0.3-1.8,0.9c-0.9,1.1-0.9,2.9,0.1,4l5.5,5.8c1.6,1.7,3.7,2.6,5.9,2.6h4.3
		l0.1,0.3c0.3,0.8,1,1.4,1.8,1.4h4.8c0.3,0,0.5-0.3,0.5-0.6v-8.6c0-0.3-0.2-0.6-0.5-0.6c-0.3,0-0.5,0.3-0.5,0.6v8h-4.3
		c-0.5,0-1-0.5-1-1v-8.9c0-0.6,0.4-1,1-1h1c0.3,0,0.5-0.3,0.5-0.6c0-0.3-0.2-0.6-0.5-0.6h-1c-0.8,0-1.5,0.5-1.9,1.4L56.7,25l-0.4,0
		c-1.7,0-3.4-0.9-4.5-2.3l-2.5-3.3c-1.3-1.7-3.2-2.7-5.3-2.7H33.5c-1.4,0-2.6,1.3-2.6,2.9s1.2,2.9,2.6,2.9h4.3
		c0.3,0,0.5-0.3,0.5-0.6c0-0.3-0.2-0.6-0.5-0.6h-4.3c-0.9,0-1.6-0.8-1.6-1.7s0.7-1.7,1.6-1.7h10.6c1.7,0,3.4,0.8,4.5,2.3l2.5,3.3
		c1.3,1.7,3.1,2.6,5.1,2.7l0.5,0v7.6h-4.2c-2,0-3.8-0.8-5.3-2.3l-5.5-5.8c-0.6-0.6-0.6-1.6-0.1-2.2c0.5-0.6,1.6-0.7,2.1-0.1l4.3,4.3
		c0.2,0.2,0.5,0.2,0.7,0c0.2-0.3,0.2-0.7,0-0.9l-4.3-4.3C44,22,43.4,21.7,42.7,21.7z"/>
</g>
<path class="st2" d="M43.9,53.4c-0.5,0.2-0.7,0.9-0.5,1.5c0.2,0.4,0.5,0.7,0.9,0.7c0.1,0,0.3,0,0.4-0.1c0,0,0,0,0,0
	c0.5-0.3,0.7-0.9,0.5-1.5C45,53.4,44.4,53.1,43.9,53.4z"/>
<path class="st2" d="M45.4,51.5c-0.4,0.3-0.5,1-0.2,1.5c0.2,0.3,0.5,0.4,0.8,0.4c0.2,0,0.4-0.1,0.6-0.2c0,0,0,0,0,0
	c0.4-0.3,0.5-1,0.2-1.5C46.4,51.3,45.8,51.2,45.4,51.5z"/>
<path class="st2" d="M41.2,54.3c-0.5,0.1-0.9,0.7-0.8,1.3c0.1,0.5,0.5,0.9,1,0.9c0.1,0,0.1,0,0.2,0c0,0,0,0,0,0
	c0.5-0.1,0.9-0.7,0.8-1.3C42.3,54.6,41.8,54.2,41.2,54.3z"/>
<path class="st2" d="M48.7,49.5c-0.4-0.4-1-0.4-1.3,0.1c0,0,0,0,0,0C47,50,47,50.7,47.4,51c0.2,0.2,0.4,0.3,0.6,0.3
	c0.3,0,0.5-0.1,0.7-0.4C49.1,50.5,49.1,49.8,48.7,49.5z M48.2,50.3l-0.1-0.1L48.2,50.3L48.2,50.3z"/>
<path class="st2" d="M51.1,43.8c-0.5-0.2-1,0.1-1.2,0.7c-0.2,0.6,0.1,1.1,0.6,1.3c0.1,0,0.2,0,0.3,0c0.4,0,0.8-0.3,0.9-0.7l0,0
	C51.9,44.5,51.6,43.9,51.1,43.8z"/>
<path class="st2" d="M52.4,38.3c-0.1-0.6-0.6-0.9-1.1-0.8c-0.5,0.1-0.8,0.7-0.7,1.2c0.1,0.5,0.5,0.9,0.9,0.9c0.1,0,0.1,0,0.2,0
	C52.1,39.5,52.5,38.9,52.4,38.3C52.4,38.3,52.4,38.3,52.4,38.3z"/>
<path class="st2" d="M51.5,40.6c-0.5-0.1-1,0.4-1,1c0,0,0,0,0,0c0,0.6,0.4,1.1,0.9,1.1c0,0,0,0,0.1,0c0.5,0,0.9-0.4,1-1
	C52.4,41.2,52,40.7,51.5,40.6z"/>
<path class="st2" d="M50.2,46.8c-0.5-0.3-1-0.1-1.3,0.4l0,0c-0.3,0.5-0.1,1.2,0.4,1.4c0.1,0.1,0.3,0.1,0.5,0.1
	c0.3,0,0.7-0.2,0.8-0.5l-0.8-0.5l0.8,0.5C50.8,47.7,50.7,47,50.2,46.8z"/>
<path class="st2" d="M32.2,27.2c0.2,0,0.3,0,0.5-0.1c0.5-0.3,0.7-0.9,0.5-1.5c-0.2-0.5-0.9-0.8-1.4-0.5l0,0
	c-0.5,0.3-0.7,0.9-0.4,1.5C31.5,27,31.8,27.2,32.2,27.2z"/>
<path class="st2" d="M35.1,26.1c0.1,0,0.2,0,0.3,0c0.5-0.1,0.9-0.7,0.7-1.3c-0.1-0.6-0.7-1-1.2-0.8c0,0,0,0,0,0
	c-0.5,0.2-0.9,0.8-0.7,1.4C34.2,25.7,34.6,26.1,35.1,26.1z"/>
<path class="st2" d="M29.7,29c0.2,0,0.4-0.1,0.6-0.2l0,0c0.4-0.4,0.5-1.1,0.2-1.6c-0.3-0.5-1-0.6-1.4-0.2l0.6,0.9L29,27
	c-0.4,0.4-0.5,1.1-0.2,1.6C29.1,28.9,29.4,29,29.7,29z"/>
<path class="st2" d="M24.5,37.3c0.1,0,0.2,0,0.2,0c0.5,0,0.9-0.3,1-0.8c0.1-0.6-0.2-1.2-0.7-1.4c-0.5-0.2-1.1,0.2-1.2,0.8
	c0,0,0,0,0,0C23.7,36.5,24,37.1,24.5,37.3z"/>
<path class="st2" d="M24.3,40.6C24.3,40.6,24.3,40.6,24.3,40.6c0.6,0,1-0.5,1-1.1c0-0.6-0.4-1.1-1-1.2c-0.6,0-1,0.4-1.1,1
	c0,0,0,0,0,0C23.3,40.1,23.8,40.6,24.3,40.6z"/>
<path class="st2" d="M25.4,34.1c0.1,0.1,0.3,0.1,0.4,0.1c0.4,0,0.7-0.2,0.9-0.6c0.3-0.5,0.1-1.2-0.4-1.5c-0.5-0.3-1.1-0.1-1.4,0.5
	l0,0C24.7,33.1,24.9,33.8,25.4,34.1z"/>
<path class="st2" d="M26.9,31.1c0.2,0.2,0.4,0.2,0.6,0.2c0.3,0,0.6-0.1,0.8-0.4c0.4-0.5,0.3-1.2-0.1-1.6c-0.4-0.4-1.1-0.3-1.4,0.1
	c0,0,0,0,0,0C26.4,30.1,26.4,30.8,26.9,31.1z"/>
<path class="st2" d="M24.4,41.7c-0.6,0.1-0.9,0.7-0.8,1.3l0,0c0.1,0.5,0.5,0.9,1,0.9c0.1,0,0.1,0,0.2,0c0.6-0.1,0.9-0.7,0.8-1.3
	C25.5,42,24.9,41.6,24.4,41.7z"/>
<g>
	<path class="st2" d="M32.2,43.3C32.2,43.3,32.2,43.3,32.2,43.3l5.8,5c0.2,0.2,0.4,0.2,0.6,0.2c0.2,0,0.4-0.1,0.6-0.2l6-5.3
		c0,0,0.1-0.1,0.1-0.1c0.9-1,1.4-2.3,1.4-3.7c0-2.8-2.1-5.2-4.7-5.2c-1.3,0-2.5,0.6-3.4,1.6c-0.9-1-2.1-1.6-3.4-1.6
		c-2.6,0-4.7,2.3-4.7,5.2C30.5,40.9,31.1,42.3,32.2,43.3z M35.2,36.4c1.1,0,2.1,0.7,2.5,1.8c0.2,0.4,0.5,0.7,0.9,0.7
		c0.4,0,0.8-0.3,0.9-0.7c0.4-1.1,1.4-1.8,2.5-1.8c1.5,0,2.7,1.3,2.7,2.9c0,0.8-0.3,1.5-0.7,2l-5.3,4.7l-5.1-4.5
		c-0.6-0.6-1-1.4-1-2.3C32.5,37.7,33.7,36.4,35.2,36.4z"/>
	<path d="M38.6,49.1c-0.3,0-0.7-0.1-1-0.4l-5.8-5C30.6,42.6,30,41,30,39.4c0-3.1,2.3-5.7,5.2-5.7c1.3,0,2.5,0.5,3.4,1.4
		c0.9-0.9,2.2-1.4,3.4-1.4c2.9,0,5.2,2.5,5.2,5.7c0,1.5-0.5,2.9-1.5,4c0,0-0.1,0.1-0.1,0.1l-6,5.3C39.3,49,38.9,49.1,38.6,49.1z
		 M35.2,34.7c-2.3,0-4.2,2.1-4.2,4.7c0,1.4,0.6,2.7,1.5,3.6l5.8,5c0.2,0.2,0.4,0.2,0.6,0l6-5.3c0.9-0.9,1.3-2.1,1.3-3.4
		c0-2.6-1.9-4.7-4.2-4.7c-1.2,0-2.2,0.5-3,1.4l-0.4,0.4l-0.4-0.4C37.4,35.2,36.3,34.7,35.2,34.7z M38.6,46.7L33.1,42
		c-0.7-0.7-1.1-1.6-1.1-2.6c0-1.9,1.4-3.4,3.2-3.4c1.3,0,2.5,0.8,2.9,2.1c0.2,0.4,0.8,0.4,0.9,0c0.5-1.3,1.6-2.1,2.9-2.1
		c1.8,0,3.2,1.5,3.2,3.4c0,0.9-0.3,1.7-0.9,2.4L38.6,46.7z M35.2,36.9C34,36.9,33,38,33,39.4c0,0.7,0.3,1.4,0.8,1.9l4.8,4.2l5-4.4
		c0.4-0.4,0.6-1,0.6-1.7c0-1.3-1-2.4-2.2-2.4c-0.9,0-1.7,0.6-2,1.5c-0.2,0.6-0.8,1-1.4,1c-0.6,0-1.2-0.4-1.4-1
		C36.8,37.5,36,36.9,35.2,36.9z"/>
</g>
<ellipse class="st2" cx="14.4" cy="55.9" rx="1" ry="1"/>
<ellipse class="st2" cx="61.5" cy="25.1" rx="1" ry="1"/>
</svg>
