<?xml version="1.0" encoding="utf-8"?>
<!-- Generator: Adobe Illustrator 19.2.1, SVG Export Plug-In . SVG Version: 6.00 Build 0)  -->
<svg version="1.1" id="Layer_1" xmlns="http://www.w3.org/2000/svg" xmlns:xlink="http://www.w3.org/1999/xlink" x="0px" y="0px"
	 viewBox="0 0 78.3 78.8" style="enable-background:new 0 0 78.3 78.8;" xml:space="preserve">
<style type="text/css">
	.st0{fill:#FFFFFF;}
	.st1{fill:#C61D23;}
</style>
<g>
	<g>
		<circle class="st0" cx="39.1" cy="39.9" r="37.3"/>
		<path d="M39.1,78.5c-21.3,0-38.6-17.3-38.6-38.6c0-21.3,17.3-38.6,38.6-38.6c21.3,0,38.6,17.3,38.6,38.6
			C77.8,61.2,60.4,78.5,39.1,78.5z M39.1,3.8c-19.9,0-36,16.2-36,36c0,19.9,16.2,36,36,36c19.9,0,36-16.2,36-36
			C75.2,20,59,3.8,39.1,3.8z"/>
	</g>
	<g>
		<path d="M39.1,77.5c-20.8,0-37.7-16.9-37.7-37.7c0-20.8,16.9-37.7,37.7-37.7c20.8,0,37.7,16.9,37.7,37.7
			C76.8,60.6,59.9,77.5,39.1,77.5z M39.1,2.8c-20.4,0-37,16.6-37,37c0,20.4,16.6,37,37,37c20.4,0,37-16.6,37-37
			C76.2,19.4,59.5,2.8,39.1,2.8z"/>
		<path d="M39.1,78.8c-21.5,0-39-17.5-39-39c0-21.5,17.5-39,39-39c21.5,0,39,17.5,39,39C78.1,61.3,60.6,78.8,39.1,78.8z M39.1,4.1
			c-19.7,0-35.7,16-35.7,35.7c0,19.7,16,35.7,35.7,35.7c19.7,0,35.7-16,35.7-35.7C74.9,20.2,58.8,4.1,39.1,4.1z"/>
	</g>
</g>
<path class="st1" d="M58.4,56.4c4.4-4.1,7.5-10.4,7.5-17.3c0-6.9-2.4-12.2-7.5-17.3l3.3-3c7.2,6.5,9.5,13.3,9.5,20.3
	c0,6.9-2.3,14.1-9.5,20.3L58.4,56.4z"/>
<g>
	<path d="M57.4,34.8L52,30.4V15.7c0-0.5-0.3-0.9-0.7-0.9H21.8c-0.4,0-0.7,0.4-0.7,0.9v14.6l-5.4,4.4h0c-0.2,0.2-0.3,0.4-0.3,0.7V62
		c0,0.5,0.3,0.9,0.7,0.9H57c0.4,0,0.7-0.4,0.7-0.9V35.5C57.7,35.2,57.6,34.9,57.4,34.8L57.4,34.8z M21.1,37.8l-2.2-1.4h2.2V37.8z
		 M16.8,36.9l16.1,10.5L16.8,60.4V36.9z M36.5,46.5l18.1,14.7H18.4L36.5,46.5z M40.2,47.3l16.1-10.5v23.5L40.2,47.3z M52,36.3h2.2
		L52,37.8V36.3z M54.7,34.6H52v-2.2L54.7,34.6z M50.6,16.6v22.1l-11.7,7.6l-1.9-1.6c-0.2-0.2-0.5-0.2-0.8,0l-1.9,1.6l-11.7-7.6V16.6
		H50.6z M21.1,34.6h-2.7l2.7-2.2V34.6z M21.1,34.6"/>
	<path d="M57,63.4H16.1c-0.6,0-1.2-0.6-1.2-1.4V35.5c0-0.4,0.2-0.9,0.5-1.1l5.2-4.2V15.7c0-0.7,0.5-1.4,1.2-1.4h29.5
		c0.6,0,1.2,0.6,1.2,1.4v14.4l5.2,4.2c0.3,0.3,0.5,0.7,0.5,1.1V62C58.2,62.8,57.6,63.4,57,63.4z M21.8,15.4c-0.1,0-0.2,0.2-0.2,0.4
		v14.9L16,35.2c-0.1,0-0.1,0.2-0.1,0.3V62c0,0.2,0.1,0.4,0.2,0.4H57c0.1,0,0.2-0.2,0.2-0.4V35.5c0-0.2-0.1-0.3-0.1-0.3l-5.6-4.5
		V15.7c0-0.2-0.1-0.4-0.2-0.4H21.8z M56.1,61.6H17l19.5-15.8L56.1,61.6z M19.8,60.6h33.5L36.5,47.1L19.8,60.6z M56.8,61.4L39.3,47.3
		L56.8,36V61.4z M41,47.4l14.8,12V37.8L41,47.4z M16.3,61.4V36l17.4,11.3L16.3,61.4z M17.2,37.8v21.6l14.8-12L17.2,37.8z M38.8,46.9
		l-2.2-1.8c-0.1,0-0.1-0.1-0.2,0l-2.2,1.8L22,38.9V16.1h29v22.8L38.8,46.9z M23,38.4l11.2,7.3l1.7-1.3c0.4-0.3,1-0.3,1.4,0l1.7,1.3
		l11.2-7.3V17.1H23V38.4z M51.5,38.7v-2.8h4.4L51.5,38.7z M21.6,38.7l-4.4-2.8h4.4V38.7z M56.1,35.1h-4.6v-3.7L56.1,35.1z
		 M52.4,34.1h0.8l-0.8-0.7V34.1z M21.6,35.1H17l4.6-3.7V35.1z M19.8,34.1h0.8v-0.7L19.8,34.1z"/>
</g>
<path d="M36.4,39.4h8.4c0.6,0,1.1-0.5,1.1-1c0-0.6-0.5-1-1.1-1h-8.4c-4.1,0-7.4-3.2-7.4-7.2v-0.3c0-4,3.3-7.2,7.4-7.2
	c4.1,0,7.4,3.2,7.4,7.2v0.8c0,0.9-0.7,1.6-1.6,1.6c-0.9,0-1.6-0.7-1.6-1.6v-1.5c0-2.5-2-4.5-4.6-4.5c-2.5,0-4.6,2-4.6,4.5
	c0,2.5,2,4.5,4.6,4.5c1.2,0,2.2-0.4,3-1.1c0.7,1,1.8,1.7,3.2,1.7c2,0,3.7-1.6,3.7-3.6v-0.8c0-5.1-4.3-9.3-9.5-9.3
	c-5.2,0-9.5,4.2-9.5,9.3v0.3C26.9,35.2,31.1,39.4,36.4,39.4L36.4,39.4z M36,31.5c-1.4,0-2.5-1.1-2.5-2.4c0-1.3,1.1-2.4,2.5-2.4
	c1.4,0,2.5,1.1,2.5,2.4C38.4,30.4,37.3,31.5,36,31.5L36,31.5z M36,31.5"/>
</svg>
