<?xml version="1.0" encoding="utf-8"?>
<!-- Generator: Adobe Illustrator 19.2.1, SVG Export Plug-In . SVG Version: 6.00 Build 0)  -->
<svg version="1.1" id="Layer_1" xmlns="http://www.w3.org/2000/svg" xmlns:xlink="http://www.w3.org/1999/xlink" x="0px" y="0px"
	 viewBox="0 0 78.7 78.3" style="enable-background:new 0 0 78.7 78.3;" xml:space="preserve">
<style type="text/css">
	.st0{fill:#FFFFFF;}
	.st1{fill:#C61D23;}
	.st2{clip-path:url(#SVGID_2_);}
</style>
<g>
	<g>
		<circle class="st0" cx="39.3" cy="39.3" r="37.3"/>
		<path d="M39.3,78C18,78,0.7,60.6,0.7,39.3C0.7,18,18,0.7,39.3,0.7S77.9,18,77.9,39.3C77.9,60.6,60.6,78,39.3,78z M39.3,3.3
			c-19.9,0-36,16.2-36,36c0,19.9,16.2,36,36,36s36-16.2,36-36C75.3,19.5,59.2,3.3,39.3,3.3z"/>
	</g>
	<g>
		<path d="M39.3,77C18.5,77,1.6,60.1,1.6,39.3c0-20.8,16.9-37.7,37.7-37.7S77,18.6,77,39.3C77,60.1,60.1,77,39.3,77z M39.3,2.3
			c-20.4,0-37,16.6-37,37c0,20.4,16.6,37,37,37s37-16.6,37-37C76.3,18.9,59.7,2.3,39.3,2.3z"/>
		<path d="M39.3,78.3c-21.5,0-39-17.5-39-39c0-21.5,17.5-39,39-39c21.5,0,39,17.5,39,39C78.3,60.8,60.8,78.3,39.3,78.3z M39.3,3.6
			c-19.7,0-35.7,16-35.7,35.7C3.6,59,19.6,75,39.3,75C59,75,75,59,75,39.3C75,19.6,59,3.6,39.3,3.6z"/>
	</g>
</g>
<path class="st1" d="M58.6,55.8c4.4-4.1,7.5-10.4,7.5-17.3c0-6.9-2.3-12.2-7.5-17.3l3.3-3c7.2,6.5,9.5,13.3,9.5,20.3
	c0,6.9-2.3,14.1-9.5,20.3L58.6,55.8z"/>
<g>
	<defs>
		<rect id="SVGID_1_" x="12.4" y="14.7" width="48.7" height="50.7"/>
	</defs>
	<clipPath id="SVGID_2_">
		<use xlink:href="#SVGID_1_"  style="overflow:visible;"/>
	</clipPath>
	<path class="st2" d="M61,15.9c-0.2-0.8-1-1.4-1.8-1.2l-6.1,1.6c-0.6,0.2-1,0.7-1.1,1.3l-0.8,5.1l-37.5,4.7c0,0-0.1,0-0.1,0
		c0,0-0.1,0-0.1,0c-0.1,0-0.2,0.1-0.2,0.1c-0.1,0-0.2,0.1-0.2,0.1c-0.1,0.1-0.2,0.2-0.3,0.3c0,0.1-0.1,0.1-0.1,0.1c0,0,0,0,0,0
		c-0.1,0.1-0.1,0.3-0.2,0.4c0,0.1,0,0.1,0,0.2c0,0.2,0,0.4,0,0.7l4.6,19l1.5,6.3c0,0,0,0.1,0.1,0.1c0,0.1,0.1,0.1,0.1,0.2
		c0.1,0.1,0.1,0.2,0.2,0.3c0,0.1,0.1,0.1,0.1,0.2c0.1,0.1,0.2,0.1,0.3,0.2c0.1,0,0.1,0.1,0.2,0.1c0.2,0.1,0.4,0.1,0.5,0.1h32
		c0.8,0,1.5-0.7,1.5-1.6c0-0.9-0.7-1.6-1.5-1.6H21.2l-0.8-3.2h28.5c0.2,0,0.4,0,0.5-0.1c0.1,0,0.1-0.1,0.2-0.1
		c0.1,0,0.2-0.1,0.3-0.2c0.1-0.1,0.1-0.1,0.2-0.2c0.1-0.1,0.1-0.1,0.2-0.2c0-0.1,0.1-0.2,0.1-0.3c0-0.1,0.1-0.2,0.1-0.2l0,0v0
		l4.4-29l5.1-1.3C60.8,17.6,61.2,16.7,61,15.9 M19.6,46.4l-3.9-16.1l4.7-0.6l2.3,16.7H19.6z M25.9,46.4l-2.3-17.1l4.7-0.6L29,46.4
		H25.9z M35.3,46.4h-3.2l-0.8-18l4.7-0.6L35.3,46.4z M41.5,46.4h-3.2l0.8-19l4.7-0.6L41.5,46.4z M47.6,46.4h-3l2.4-20l3.2-0.4
		L47.6,46.4z M26.1,59.1c-1.7,0-3,1.4-3,3.2c0,1.8,1.4,3.2,3,3.2c1.7,0,3-1.4,3-3.2C29.1,60.5,27.7,59.1,26.1,59.1 M45.9,59.1
		c-1.7,0-3,1.4-3,3.2c0,1.8,1.4,3.2,3,3.2c1.7,0,3-1.4,3-3.2C48.9,60.5,47.5,59.1,45.9,59.1"/>
</g>
</svg>
