<?xml version="1.0" encoding="utf-8"?>
<!-- Generator: Adobe Illustrator 19.2.1, SVG Export Plug-In . SVG Version: 6.00 Build 0)  -->
<svg version="1.1" id="Layer_1" xmlns="http://www.w3.org/2000/svg" xmlns:xlink="http://www.w3.org/1999/xlink" x="0px" y="0px"
	 viewBox="0 0 78.6 78.8" style="enable-background:new 0 0 78.6 78.8;" xml:space="preserve">
<style type="text/css">
	.st0{fill:#FFFFFF;}
	.st1{fill:#C61D23;}
</style>
<g>
	<g>
		<circle class="st0" cx="39.1" cy="39.9" r="37.3"/>
		<path d="M39.1,78.5c-21.3,0-38.6-17.3-38.6-38.6c0-21.3,17.3-38.6,38.6-38.6s38.6,17.3,38.6,38.6C77.7,61.2,60.4,78.5,39.1,78.5z
			 M39.1,3.8C19.2,3.8,3,20,3,39.9c0,19.9,16.2,36,36,36c19.9,0,36-16.2,36-36C75.1,20,58.9,3.8,39.1,3.8z"/>
	</g>
	<g>
		<path d="M39.1,77.5c-20.8,0-37.7-16.9-37.7-37.7c0-20.8,16.9-37.7,37.7-37.7s37.7,16.9,37.7,37.7C76.7,60.6,59.8,77.5,39.1,77.5z
			 M39.1,2.8c-20.4,0-37,16.6-37,37c0,20.4,16.6,37,37,37s37-16.6,37-37C76.1,19.4,59.5,2.8,39.1,2.8z"/>
		<path d="M39.1,78.8c-21.5,0-39-17.5-39-39c0-21.5,17.5-39,39-39c21.5,0,39,17.5,39,39C78,61.3,60.6,78.8,39.1,78.8z M39.1,4.1
			c-19.7,0-35.7,16-35.7,35.7c0,19.7,16,35.7,35.7,35.7c19.7,0,35.7-16,35.7-35.7C74.8,20.2,58.8,4.1,39.1,4.1z"/>
	</g>
</g>
<path class="st1" d="M58.4,56.4c4.4-4.1,7.5-10.4,7.5-17.3c0-6.9-2.3-12.2-7.5-17.3l3.3-3c7.2,6.5,9.5,13.3,9.5,20.3
	c0,6.9-2.3,14.1-9.5,20.3L58.4,56.4z"/>
<g>
	<path d="M33.2,61.5c-2.8,0-5-2.9-5-6.5c0-3.6,2.2-6.5,5-6.5c2.8,0,5,2.9,5,6.5C38.2,58.6,36,61.5,33.2,61.5L33.2,61.5z M33.2,51.7
		c-1.4,0-2.6,1.5-2.6,3.3c0,1.8,1.2,3.3,2.6,3.3c1.4,0,2.6-1.5,2.6-3.3C35.8,53.2,34.6,51.7,33.2,51.7L33.2,51.7z M33.2,51.7"/>
	<path d="M9.4,36.2c0-0.9,0.6-1.6,1.4-1.6h14.5V30l-4-3.3c-0.8-0.7-1.8-1-2.7-1h-7.8c-0.8,0-1.4-0.7-1.4-1.6c0-0.9,0.6-1.6,1.4-1.6
		h7.8c1.6,0,3.2,0.6,4.5,1.6l12.7,10.6l0.2,0l5-13c1.4-3.6,3.9-6.7,7.1-8.5c0.7-0.4,1.6-0.1,1.9,0.6c0.4,0.8,0.1,1.7-0.6,2.1
		c-2.6,1.5-4.7,4-5.8,7l-4.7,12.3L52.5,38c2,0.4,3.8,1.7,4.9,3.5l0.9,1.5c1,1.6,1.5,3.5,1.5,5.4c0,1.4-0.3,2.8-0.8,4.1
		c-0.5,1.3-1.3,2.4-2.3,3.4L55.5,57C54,58.5,52,59.3,50,59.3h-3.4c-1.5,3.9-5.1,6.6-9.2,6.6s-7.6-2.7-9.2-6.6H10.8
		c-0.8,0-1.4-0.7-1.4-1.6c0-0.9,0.6-1.6,1.4-1.6h16.7c0-0.4-0.1-0.8-0.1-1.2c0-0.5,0-1,0.1-1.5H10.8c-0.8,0-1.4-0.7-1.4-1.6
		c0-0.9,0.6-1.6,1.4-1.6h17.6c1.6-3.7,5-6.3,9-6.3c4,0,7.4,2.6,9,6.3h10.2c0.1-0.5,0.2-1,0.2-1.6h-4c-1.8,0-3.3-1.6-3.3-3.6
		c0-2,1.5-3.6,3.3-3.6h0.5c-0.4-0.2-0.9-0.4-1.3-0.5l-17-3.3H10.8C10,37.8,9.4,37.1,9.4,36.2L9.4,36.2z M37.4,47.2
		c-3.9,0-7.1,3.5-7.1,7.8c0,4.3,3.2,7.8,7.1,7.8s7.1-3.5,7.1-7.8C44.5,50.7,41.3,47.2,37.4,47.2L37.4,47.2z M47.3,56.2H50
		c1.4,0,2.7-0.5,3.7-1.5l1.2-1.1c0,0,0.1-0.1,0.1-0.1h-7.6c0.1,0.5,0.1,1,0.1,1.5C47.4,55.4,47.4,55.8,47.3,56.2L47.3,56.2z
		 M52.5,45.2c0,0.2,0.2,0.4,0.4,0.4h3.5c-0.1-0.3-0.3-0.6-0.4-0.9h-3C52.6,44.7,52.5,44.9,52.5,45.2L52.5,45.2z M28.2,34.7H31
		l-2.8-2.3V34.7z M28.2,34.7"/>
	<path d="M14.2,40.6c0.7,0,1.2,0.7,1.2,1.6c0,0.9-0.5,1.6-1.2,1.6H11c-0.7,0-1.2-0.7-1.2-1.6c0-0.9,0.5-1.6,1.2-1.6H14.2z
		 M14.2,40.6"/>
</g>
</svg>
