<?xml version="1.0" encoding="utf-8"?>
<!-- Generator: Adobe Illustrator 19.2.1, SVG Export Plug-In . SVG Version: 6.00 Build 0)  -->
<svg version="1.1" id="Layer_1" xmlns="http://www.w3.org/2000/svg" xmlns:xlink="http://www.w3.org/1999/xlink" x="0px" y="0px"
	 viewBox="0 0 79.3 79.8" style="enable-background:new 0 0 79.3 79.8;" xml:space="preserve">
<style type="text/css">
	.st0{fill:#FFFFFF;}
	.st1{fill:#C61D23;}
	.st2{fill:#010101;}
</style>
<g>
	<g>
		<circle class="st0" cx="39.6" cy="40.3" r="37.3"/>
		<path d="M39.6,78.9C18.3,78.9,1,61.6,1,40.3C1,19,18.3,1.6,39.6,1.6S78.2,19,78.2,40.3C78.2,61.6,60.9,78.9,39.6,78.9z M39.6,4.2
			c-19.9,0-36,16.2-36,36c0,19.9,16.2,36,36,36c19.9,0,36-16.2,36-36C75.6,20.4,59.5,4.2,39.6,4.2z"/>
	</g>
	<g>
		<path d="M39.6,77.9C18.8,77.9,1.9,61,1.9,40.3S18.8,2.6,39.6,2.6c20.8,0,37.7,16.9,37.7,37.7S60.4,77.9,39.6,77.9z M39.6,3.3
			c-20.4,0-37,16.6-37,37c0,20.4,16.6,37,37,37c20.4,0,37-16.6,37-37C76.6,19.9,60,3.3,39.6,3.3z"/>
		<path d="M39.6,79.2c-21.5,0-39-17.5-39-39c0-21.5,17.5-39,39-39c21.5,0,39,17.5,39,39C78.5,61.7,61.1,79.2,39.6,79.2z M39.6,4.6
			c-19.7,0-35.7,16-35.7,35.7C3.9,60,19.9,76,39.6,76c19.7,0,35.7-16,35.7-35.7C75.3,20.6,59.3,4.6,39.6,4.6z"/>
	</g>
</g>
<path class="st1" d="M58.9,56.8c4.4-4.1,7.5-10.4,7.5-17.3c0-6.9-2.3-12.2-7.5-17.3l3.3-3c7.2,6.5,9.5,13.3,9.5,20.3
	c0,6.9-2.4,14.1-9.5,20.3L58.9,56.8z"/>
<g>
	<path class="st2" d="M59.3,29.5c-2.8-6.1-7.9-10.6-13.8-12.7c-5.9-2.2-12.6-2.1-18.7,0.7c-6.1,2.8-10.6,7.9-12.7,13.8
		c-2.2,5.9-2.1,12.6,0.7,18.7s7.9,10.6,13.8,12.7s12.6,2.1,18.7-0.7c6.1-2.8,10.6-7.9,12.7-13.8C62.2,42.3,62.1,35.6,59.3,29.5z
		 M46.2,59.5c-5.5,2.5-11.4,2.6-16.7,0.6c-5.2-1.9-9.7-5.9-12.2-11.3c-2.5-5.5-2.6-11.4-0.6-16.7c1.9-5.2,5.9-9.7,11.3-12.2
		c5.5-2.5,11.4-2.6,16.7-0.6c5.2,1.9,9.7,5.9,12.2,11.3c2.5,5.5,2.6,11.4,0.6,16.7C55.6,52.5,51.6,57,46.2,59.5z"/>
	<path d="M37.1,64.7C37.1,64.7,37.1,64.7,37.1,64.7c-3,0-5.9-0.5-8.7-1.6c-6.3-2.3-11.2-6.9-14-13c-2.8-6.1-3-12.9-0.7-19.1
		c2.3-6.3,6.9-11.2,13-14c3.3-1.5,6.8-2.3,10.4-2.3c3,0,5.9,0.5,8.7,1.6c6.3,2.3,11.2,6.9,14,13c2.8,6.1,3,12.9,0.7,19.1
		c-2.3,6.3-6.9,11.2-13,14C44.2,63.9,40.7,64.7,37.1,64.7z M37,15.7c-3.5,0-6.8,0.7-10,2.2c-5.8,2.7-10.3,7.5-12.5,13.5
		c-2.2,6-2,12.5,0.7,18.4c2.7,5.8,7.5,10.3,13.5,12.5c2.7,1,5.5,1.5,8.4,1.5c3.5,0,6.8-0.7,10-2.2c5.8-2.7,10.3-7.5,12.5-13.5
		c2.2-6,2-12.5-0.7-18.4c-2.7-5.8-7.5-10.3-13.5-12.5C42.7,16.2,39.9,15.7,37,15.7z M37.1,62c-2.7,0-5.3-0.5-7.8-1.4
		c-5.6-2.1-10-6.2-12.5-11.6c-2.5-5.4-2.7-11.5-0.6-17c2.1-5.6,6.2-10,11.6-12.5c2.9-1.4,6.1-2,9.3-2c2.7,0,5.3,0.5,7.8,1.4
		c5.6,2.1,10,6.2,12.5,11.6c2.5,5.4,2.7,11.5,0.6,17c-2.1,5.6-6.2,10-11.6,12.5C43.4,61.3,40.3,62,37.1,62z M37,18.4
		c-3.1,0-6.1,0.7-8.9,1.9c-5.2,2.4-9.1,6.6-11.1,12c-2,5.3-1.8,11.1,0.6,16.3c2.4,5.2,6.6,9.1,12,11.1c2.4,0.9,4.9,1.3,7.4,1.3
		c3.1,0,6.1-0.7,8.9-1.9c5.2-2.4,9.1-6.6,11.1-12c2-5.3,1.8-11.1-0.6-16.3c-2.4-5.2-6.6-9.1-12-11.1C42.1,18.9,39.6,18.4,37,18.4z"
		/>
</g>
<g>
	<path class="st2" d="M54.6,31.6L54.6,31.6c-0.3-0.7-1.1-1-1.8-0.7l-16.4,7.5L20.1,46c-0.7,0.3-1,1.1-0.7,1.8l0,0
		c2.2,4.8,6.2,8.4,10.8,10.1c4.6,1.7,9.9,1.6,14.8-0.6l0,0l0,0c4.8-2.2,8.4-6.2,10.1-10.8C56.9,41.8,56.9,36.5,54.6,31.6z M44,54.9
		L44,54.9L44,54.9c-4.2,1.9-8.8,1.9-12.7,0.4c-3.6-1.3-6.8-3.9-8.7-7.5l15.1-6.9L52.7,34c1.4,3.8,1.3,7.9,0,11.5
		C51.2,49.5,48.2,52.9,44,54.9z"/>
	<path d="M36.9,59.6C36.9,59.6,36.9,59.6,36.9,59.6c-2.3,0-4.6-0.4-6.8-1.2c-4.9-1.8-8.9-5.5-11.1-10.3c-0.4-0.9,0-2,0.9-2.5
		l32.8-15.1c0.9-0.4,2,0,2.5,0.9c2.2,4.9,2.4,10.3,0.5,15.2c-1.8,4.9-5.5,8.9-10.3,11.1C42.6,58.9,39.8,59.6,36.9,59.6z M53.4,31.3
		c-0.1,0-0.2,0-0.4,0.1L20.3,46.4c-0.2,0.1-0.4,0.3-0.4,0.5c-0.1,0.2-0.1,0.4,0,0.7c2.1,4.6,5.9,8.1,10.5,9.8
		c2.1,0.8,4.3,1.2,6.5,1.2c0,0,0,0,0,0c2.7,0,5.4-0.6,7.9-1.7c4.6-2.1,8.1-5.9,9.8-10.5c1.9-4.7,1.7-9.8-0.4-14.5
		C54,31.5,53.7,31.3,53.4,31.3z M37.1,56.9c-2.1,0-4.1-0.4-6-1.1c-3.8-1.4-7-4.2-9-7.7l-0.3-0.5L53,33.3l0.2,0.5
		c1.4,3.8,1.4,8,0,11.8c-1.7,4.3-4.8,7.8-9,9.7C42,56.3,39.6,56.9,37.1,56.9z M23.3,48.1c1.9,3.1,4.8,5.5,8.2,6.8
		c4,1.5,8.4,1.3,12.4-0.4c3.9-1.8,6.9-5.1,8.4-9.1c1.3-3.4,1.3-7.2,0.2-10.6L23.3,48.1z"/>
</g>
<g>
	<path class="st2" d="M23.9,37.1c-0.3-0.8-0.4-1.6-0.1-2.3c0.3-0.7,0.8-1.4,1.5-1.7l0,0c0.8-0.3,1.5-0.3,2.3-0.1
		c0.7,0.3,1.4,0.8,1.7,1.5c0.3,0.7,1.1,1,1.8,0.7c0.7-0.3,1-1.1,0.7-1.8c-0.7-1.4-1.8-2.5-3.2-3c-1.3-0.5-2.9-0.5-4.4,0.1l0,0l0,0
		l0,0c-1.4,0.7-2.4,1.8-2.9,3.2c-0.5,1.3-0.5,2.9,0.1,4.4c0.3,0.7,1.1,1,1.8,0.7C24,38.5,24.3,37.7,23.9,37.1z"/>
	<path d="M22.7,39.4L22.7,39.4c-0.7,0-1.4-0.4-1.7-1.1c-0.7-1.5-0.7-3.2-0.2-4.7c0.6-1.6,1.7-2.8,3.2-3.5c1.5-0.7,3.2-0.7,4.7-0.2
		c1.5,0.6,2.8,1.7,3.5,3.3c0.4,0.9,0,2-0.9,2.5c-0.9,0.4-2,0-2.5-0.9c-0.3-0.6-0.8-1-1.4-1.3c-0.7-0.2-1.3-0.2-1.9,0
		c-0.6,0.3-1,0.8-1.3,1.4c-0.2,0.6-0.2,1.3,0.1,1.9c0.2,0.5,0.2,1,0,1.5c-0.2,0.4-0.6,0.8-1,0.9C23.2,39.4,22.9,39.4,22.7,39.4z
		 M26.6,30.5c-0.7,0-1.5,0.2-2.1,0.5c-1.3,0.6-2.2,1.6-2.7,2.9c-0.5,1.3-0.4,2.8,0.1,4c0.2,0.4,0.7,0.6,1.1,0.4
		c0.2-0.1,0.4-0.2,0.5-0.4c0.1-0.2,0.1-0.4,0-0.7c-0.4-0.9-0.4-1.8-0.1-2.7c0.3-0.9,1-1.6,1.8-2c0.8-0.4,1.8-0.4,2.7-0.1
		c0.9,0.3,1.6,1,2,1.8c0.2,0.4,0.7,0.6,1.1,0.4c0.4-0.2,0.6-0.7,0.4-1.1c-0.6-1.3-1.6-2.3-2.9-2.7C27.8,30.7,27.2,30.5,26.6,30.5z"
		/>
</g>
<g>
	<path class="st2" d="M37.5,32.3c0.7-0.3,1-1.1,0.7-1.8c-0.3-0.8-0.4-1.6-0.1-2.3c0.3-0.7,0.8-1.3,1.6-1.7c0.8-0.3,1.6-0.4,2.3-0.1
		c0.7,0.3,1.4,0.8,1.7,1.5c0.3,0.7,1.1,1,1.8,0.7c0.7-0.3,1-1.1,0.7-1.8c-0.7-1.4-1.8-2.5-3.2-3c-1.3-0.5-2.9-0.5-4.4,0.1
		c-1.4,0.7-2.4,1.8-2.9,3.2c-0.5,1.3-0.5,2.9,0.1,4.4C36,32.3,36.8,32.6,37.5,32.3z"/>
	<path d="M36.9,33L36.9,33c-0.8,0-1.4-0.5-1.7-1.2c-0.7-1.4-0.7-3.2-0.1-4.7c0.6-1.6,1.7-2.8,3.2-3.5c1.5-0.7,3.2-0.7,4.7-0.2
		c1.5,0.6,2.8,1.7,3.5,3.3c0.2,0.5,0.2,1,0.1,1.4c-0.2,0.5-0.5,0.8-1,1c-0.9,0.4-2,0-2.5-0.9c-0.3-0.6-0.8-1-1.4-1.3
		c-0.6-0.2-1.3-0.2-1.9,0.1c-0.6,0.3-1.1,0.8-1.3,1.4c-0.2,0.6-0.2,1.3,0.1,1.9c0.4,0.9,0,2-0.9,2.5C37.4,32.9,37.2,33,36.9,33z
		 M40.9,24c-0.7,0-1.5,0.2-2.1,0.5C37.5,25,36.5,26,36,27.4c-0.5,1.3-0.4,2.8,0.1,4c0.1,0.4,0.4,0.6,0.7,0.6l0,0
		c0.1,0,0.2,0,0.3-0.1c0.4-0.2,0.6-0.7,0.4-1.1c-0.4-0.8-0.4-1.9-0.1-2.7c0.3-0.8,1-1.6,1.8-2c0.9-0.4,1.8-0.4,2.7-0.1
		c0.9,0.3,1.6,1,2,1.8c0.2,0.4,0.7,0.6,1.1,0.4c0.2-0.1,0.4-0.3,0.4-0.5c0.1-0.2,0.1-0.4,0-0.7c-0.6-1.3-1.6-2.3-2.9-2.7
		C42.1,24.1,41.5,24,40.9,24z"/>
</g>
</svg>
