<?xml version="1.0" encoding="utf-8"?>
<!-- Generator: Adobe Illustrator 19.2.1, SVG Export Plug-In . SVG Version: 6.00 Build 0)  -->
<svg version="1.1" id="Layer_1" xmlns="http://www.w3.org/2000/svg" xmlns:xlink="http://www.w3.org/1999/xlink" x="0px" y="0px"
	 viewBox="0 0 78.3 78.2" style="enable-background:new 0 0 78.3 78.2;" xml:space="preserve">
<style type="text/css">
	.st0{fill:#FFFFFF;}
	.st1{fill:#C61D23;}
	.st2{clip-path:url(#SVGID_2_);}
	.st3{fill:#010101;}
	.st4{clip-path:url(#SVGID_2_);fill:#010101;}
</style>
<g>
	<g>
		<circle class="st0" cx="39.2" cy="39.2" r="37.3"/>
		<path d="M39.2,77.8c-21.3,0-38.6-17.3-38.6-38.6c0-21.3,17.3-38.6,38.6-38.6s38.6,17.3,38.6,38.6C77.8,60.5,60.5,77.8,39.2,77.8z
			 M39.2,3.2c-19.9,0-36,16.2-36,36c0,19.9,16.2,36,36,36c19.9,0,36-16.2,36-36C75.2,19.3,59.1,3.2,39.2,3.2z"/>
	</g>
	<g>
		<path d="M39.2,76.9C18.4,76.9,1.5,60,1.5,39.2c0-20.8,16.9-37.7,37.7-37.7c20.8,0,37.7,16.9,37.7,37.7C76.9,60,60,76.9,39.2,76.9z
			 M39.2,2.2c-20.4,0-37,16.6-37,37c0,20.4,16.6,37,37,37c20.4,0,37-16.6,37-37C76.2,18.8,59.6,2.2,39.2,2.2z"/>
		<path d="M39.2,78.2c-21.5,0-39-17.5-39-39c0-21.5,17.5-39,39-39s39,17.5,39,39C78.2,60.7,60.7,78.2,39.2,78.2z M39.2,3.5
			c-19.7,0-35.7,16-35.7,35.7c0,19.7,16,35.7,35.7,35.7c19.7,0,35.7-16,35.7-35.7C74.9,19.5,58.9,3.5,39.2,3.5z"/>
	</g>
</g>
<path class="st1" d="M58.5,55.7c4.4-4.1,7.5-10.4,7.5-17.3c0-6.9-2.4-12.2-7.5-17.3l3.3-3c7.2,6.5,9.5,13.3,9.5,20.3
	c0,6.9-2.4,14.1-9.5,20.3L58.5,55.7z"/>
<g>
	<defs>
		<rect id="SVGID_1_" x="11.3" y="10.5" width="50.7" height="51.7"/>
	</defs>
	<clipPath id="SVGID_2_">
		<use xlink:href="#SVGID_1_"  style="overflow:visible;"/>
	</clipPath>
	<g class="st2">
		<path class="st3" d="M60.5,59.2H56V37.5c1.7,0.6,3.7,0.1,4.9-1.3c1.6-1.9,1.4-4.8-0.5-6.4L39.6,11.6c-1.7-1.5-4.1-1.5-5.8,0
			L12.9,29.8c-1.9,1.6-2.1,4.5-0.5,6.4c1.2,1.5,3.2,1.9,4.9,1.3v21.7h-4.5c-0.8,0-1.5,0.7-1.5,1.5c0,0.8,0.7,1.5,1.5,1.5h47.7
			c0.8,0,1.5-0.7,1.5-1.5C62,59.8,61.3,59.2,60.5,59.2 M14.6,34.2c-0.5-0.6-0.5-1.6,0.2-2.1l20.9-18.2c0.6-0.5,1.4-0.5,1.9,0
			l20.9,18.2c0.6,0.5,0.7,1.5,0.2,2.1c-0.5,0.6-1.5,0.7-2.1,0.2C55.8,33.7,39,19.1,37.6,17.9c-0.6-0.5-1.4-0.5-1.9,0
			c-1.4,1.2-18.4,16-18.9,16.5C16.1,34.9,15.2,34.8,14.6,34.2 M26.3,43.9h5.9v15.2h-5.9V43.9z M35.2,59.2V42.4
			c0-0.8-0.7-1.5-1.5-1.5h-8.9c-0.8,0-1.5,0.7-1.5,1.5v16.7h-3.1V35.3L36.7,21l16.4,14.3v23.8H35.2z"/>
		<path d="M60.5,62.7H12.8c-1.1,0-2-0.9-2-2c0-1.1,0.9-2,2-2h4V38.2c-1.7,0.4-3.6-0.3-4.7-1.7c-1.8-2.1-1.5-5.3,0.5-7.1l20.9-18.2
			c1.8-1.6,4.6-1.6,6.5,0l20.9,18.2c2.1,1.8,2.3,5,0.5,7.1c-1.2,1.4-3,2-4.7,1.7v20.5h4c1.1,0,2,0.9,2,2
			C62.5,61.8,61.6,62.7,60.5,62.7z M12.8,59.7c-0.5,0-1,0.5-1,1c0,0.6,0.4,1,1,1h47.7c0.5,0,1-0.5,1-1c0-0.6-0.4-1-1-1h-5V36.8
			l0.7,0.2c1.5,0.5,3.3,0.1,4.3-1.2c1.4-1.7,1.2-4.3-0.4-5.7L39.2,12c-1.4-1.3-3.7-1.3-5.1,0L13.2,30.2c-1.7,1.4-1.9,4-0.4,5.7
			c1,1.2,2.8,1.7,4.3,1.2l0.7-0.2v22.9H12.8z M53.6,59.7H34.7V42.4c0-0.6-0.4-1-1-1h-8.9c-0.5,0-1,0.5-1,1v17.2h-4.1V35.1l16.9-14.7
			l16.9,14.7V59.7z M35.7,58.7h16.9V35.6L36.7,21.7L20.7,35.6v23.1h2.1V42.4c0-1.1,0.9-2,2-2h8.9c1.1,0,2,0.9,2,2V58.7z M32.7,59.7
			h-6.9V43.4h6.9V59.7z M26.8,58.7h4.9V44.4h-4.9V58.7z M57.5,35.2c-0.5,0-0.9-0.2-1.3-0.5c-0.8-0.7-17.5-15.2-18.9-16.5
			c-0.4-0.3-0.9-0.3-1.3,0c-1.4,1.2-18.4,16-19,16.5c-0.8,0.7-2.1,0.6-2.8-0.2c-0.7-0.8-0.6-2.1,0.2-2.8l20.9-18.2
			c0.7-0.6,1.9-0.6,2.6,0l20.9,18.2c0.8,0.7,0.9,2,0.2,2.8C58.7,35,58.1,35.2,57.5,35.2z M36.7,17c0.5,0,0.9,0.2,1.3,0.5
			c1.4,1.2,18.2,15.8,18.9,16.5c0.4,0.4,1,0.3,1.4-0.1c0.4-0.4,0.3-1.1-0.1-1.4L37.3,14.3c-0.4-0.3-0.9-0.3-1.3,0L15.1,32.5
			c-0.4,0.4-0.5,1-0.1,1.4c0.3,0.4,1,0.5,1.4,0.1C17,33.5,34,18.7,35.4,17.5C35.7,17.2,36.2,17,36.7,17z"/>
	</g>
	<path class="st4" d="M48.5,40.9h-8.9c-0.8,0-1.5,0.7-1.5,1.5v9.1c0,0.8,0.7,1.5,1.5,1.5h8.9c0.8,0,1.5-0.7,1.5-1.5v-9.1
		C50,41.6,49.3,40.9,48.5,40.9 M47,50h-5.9v-6.1H47V50z"/>
	<path class="st4" d="M41.1,30.2c0-2.5-2-4.5-4.5-4.5c-2.5,0-4.5,2-4.5,4.5c0,2.5,2,4.5,4.5,4.5C39.1,34.7,41.1,32.7,41.1,30.2
		 M36.7,31.7c-0.8,0-1.5-0.7-1.5-1.5c0-0.8,0.7-1.5,1.5-1.5c0.8,0,1.5,0.7,1.5,1.5C38.1,31,37.5,31.7,36.7,31.7"/>
</g>
</svg>
