<?xml version="1.0" encoding="utf-8"?>
<!-- Generator: Adobe Illustrator 19.2.1, SVG Export Plug-In . SVG Version: 6.00 Build 0)  -->
<svg version="1.1" id="Layer_1" xmlns="http://www.w3.org/2000/svg" xmlns:xlink="http://www.w3.org/1999/xlink" x="0px" y="0px"
	 viewBox="0 0 79 79.8" style="enable-background:new 0 0 79 79.8;" xml:space="preserve">
<style type="text/css">
	.st0{fill:#FFFFFF;}
	.st1{fill:#C61D23;}
	.st2{fill:#010101;}
</style>
<g>
	<g>
		<circle class="st0" cx="39.7" cy="40.3" r="37.3"/>
		<path d="M39.7,78.9C18.4,78.9,1,61.6,1,40.3C1,19,18.4,1.6,39.7,1.6C61,1.6,78.3,19,78.3,40.3C78.3,61.6,61,78.9,39.7,78.9z
			 M39.7,4.2c-19.9,0-36,16.2-36,36c0,19.9,16.2,36,36,36c19.9,0,36-16.2,36-36C75.7,20.4,59.5,4.2,39.7,4.2z"/>
	</g>
	<g>
		<path d="M39.7,77.9C18.9,77.9,2,61,2,40.3S18.9,2.6,39.7,2.6c20.8,0,37.7,16.9,37.7,37.7S60.4,77.9,39.7,77.9z M39.7,3.3
			c-20.4,0-37,16.6-37,37c0,20.4,16.6,37,37,37c20.4,0,37-16.6,37-37C76.7,19.9,60.1,3.3,39.7,3.3z"/>
		<path d="M39.7,79.2c-21.5,0-39-17.5-39-39c0-21.5,17.5-39,39-39c21.5,0,39,17.5,39,39C78.6,61.7,61.1,79.2,39.7,79.2z M39.7,4.6
			C20,4.6,4,20.6,4,40.3C4,60,20,76,39.7,76c19.7,0,35.7-16,35.7-35.7C75.4,20.6,59.4,4.6,39.7,4.6z"/>
	</g>
</g>
<path class="st1" d="M58.9,56.8c4.4-4.1,7.5-10.4,7.5-17.3c0-6.9-2.3-12.2-7.5-17.3l3.3-3c7.2,6.5,9.5,13.3,9.5,20.3
	c0,6.9-2.3,14.1-9.5,20.3L58.9,56.8z"/>
<path class="st2" d="M58.6,29v-9.8H53v-3.6H20.7c-2.3,0-4.2,1.9-4.2,4.2v39.3c0,2.3,1.9,4.2,4.2,4.2H53v-2.8h-2.8v-2.8H53v-3.6h5.6
	v-9.8H53v-2.8h5.6v-9.8H53V29H58.6z M55.8,22v4.2H53V22H55.8z M19.3,19.8c0-0.8,0.6-1.4,1.4-1.4h1.4v36.5h-1.4c-0.5,0-1,0.1-1.4,0.2
	V19.8z M47.4,60.5H20.7c-0.8,0-1.4-0.6-1.4-1.4c0-0.8,0.6-1.4,1.4-1.4h26.7V60.5z M50.2,54.9H24.9V18.4h25.3V54.9z M55.8,47.2v4.2
	H53v-4.2H55.8z M55.8,34.6v4.2H53v-4.2H55.8z"/>
</svg>
