<?xml version="1.0" encoding="utf-8"?>
<!-- Generator: Adobe Illustrator 19.2.1, SVG Export Plug-In . SVG Version: 6.00 Build 0)  -->
<svg version="1.1" id="Layer_1" xmlns="http://www.w3.org/2000/svg" xmlns:xlink="http://www.w3.org/1999/xlink" x="0px" y="0px"
	 viewBox="0 0 79.9 79.8" style="enable-background:new 0 0 79.9 79.8;" xml:space="preserve">
<style type="text/css">
	.st0{fill:#FFFFFF;}
	.st1{fill:#C61D23;}
	.st2{fill:#010101;}
</style>
<g>
	<g>
		<circle class="st0" cx="40" cy="40.3" r="37.3"/>
		<path d="M40,78.9c-21.3,0-38.6-17.3-38.6-38.6C1.4,19,18.7,1.6,40,1.6S78.7,19,78.7,40.3C78.7,61.6,61.3,78.9,40,78.9z M40,4.2
			c-19.9,0-36,16.2-36,36c0,19.9,16.2,36,36,36c19.9,0,36-16.2,36-36C76.1,20.4,59.9,4.2,40,4.2z"/>
	</g>
	<g>
		<path d="M40,77.9C19.3,77.9,2.4,61,2.4,40.3S19.3,2.6,40,2.6s37.7,16.9,37.7,37.7S60.8,77.9,40,77.9z M40,3.3
			c-20.4,0-37,16.6-37,37c0,20.4,16.6,37,37,37s37-16.6,37-37C77,19.9,60.4,3.3,40,3.3z"/>
		<path d="M40,79.2c-21.5,0-39-17.5-39-39c0-21.5,17.5-39,39-39c21.5,0,39,17.5,39,39C79,61.7,61.5,79.2,40,79.2z M40,4.6
			c-19.7,0-35.7,16-35.7,35.7C4.3,60,20.4,76,40,76c19.7,0,35.7-16,35.7-35.7C75.8,20.6,59.7,4.6,40,4.6z"/>
	</g>
</g>
<path class="st1" d="M59.3,56.8c4.4-4.1,7.5-10.4,7.5-17.3c0-6.9-2.3-12.2-7.5-17.3l3.3-3c7.2,6.5,9.5,13.3,9.5,20.3
	c0,6.9-2.3,14.1-9.5,20.3L59.3,56.8z"/>
<path class="st2" d="M55.3,19.3H43.7c-0.8,0-1.4,0.6-1.4,1.4v8.7v5.8c0,0.8,0.6,1.4,1.4,1.4c0.8,0,1.4-0.6,1.4-1.4v-4.3h10.1
	c0.8,0,1.4-0.6,1.4-1.4v-8.7C56.7,20,56.1,19.3,55.3,19.3z"/>
<path class="st2" d="M53,49.2H38.5c-1.6,0-2.9-1.3-2.9-2.9s1.3-2.9,2.9-2.9h3.2c0.6,1.7,2.2,2.9,4.1,2.9c2.4,0,4.3-1.9,4.3-4.3
	c0-2.4-1.9-4.3-4.3-4.3c-1.9,0-3.5,1.2-4.1,2.9h-3.2c-3.2,0-5.8,2.6-5.8,5.8s2.6,5.8,5.8,5.8H53c1.6,0,2.9,1.3,2.9,2.9
	s-1.3,2.9-2.9,2.9H26.6C26,56.2,24.4,55,22.6,55c-2.4,0-4.3,1.9-4.3,4.3c0,2.4,1.9,4.3,4.3,4.3c1.9,0,3.5-1.2,4.1-2.9H53
	c3.2,0,5.8-2.6,5.8-5.8S56.2,49.2,53,49.2z"/>
<path class="st2" d="M22.6,52.1c0.4,0,0.8-0.2,1.1-0.5c0.9-1,9.1-10.2,9.1-15.4c0-5.6-4.5-10.1-10.1-10.1c-5.6,0-10.1,4.5-10.1,10.1
	c0,5.2,8.1,14.4,9.1,15.4C21.7,51.9,22.1,52.1,22.6,52.1z M18.2,36.1c0-2.4,1.9-4.3,4.3-4.3c2.4,0,4.3,1.9,4.3,4.3
	c0,2.4-1.9,4.3-4.3,4.3C20.2,40.5,18.2,38.5,18.2,36.1z"/>
</svg>
