<?xml version="1.0" encoding="utf-8"?>
<!-- Generator: Adobe Illustrator 19.2.1, SVG Export Plug-In . SVG Version: 6.00 Build 0)  -->
<svg version="1.1" id="Layer_1" xmlns="http://www.w3.org/2000/svg" xmlns:xlink="http://www.w3.org/1999/xlink" x="0px" y="0px"
	 viewBox="0 0 79 79.8" style="enable-background:new 0 0 79 79.8;" xml:space="preserve">
<style type="text/css">
	.st0{fill:#FFFFFF;}
	.st1{fill:#C61D23;}
</style>
<g>
	<g>
		<circle class="st0" cx="39.7" cy="40.3" r="37.3"/>
		<path d="M39.7,78.9c-21.3,0-38.6-17.3-38.6-38.6C1.1,19,18.4,1.6,39.7,1.6C61,1.6,78.4,19,78.4,40.3C78.4,61.6,61,78.9,39.7,78.9z
			 M39.7,4.2c-19.9,0-36,16.2-36,36c0,19.9,16.2,36,36,36c19.9,0,36-16.2,36-36C75.8,20.4,59.6,4.2,39.7,4.2z"/>
	</g>
	<g>
		<path d="M39.7,77.9C19,77.9,2.1,61,2.1,40.3S19,2.6,39.7,2.6c20.8,0,37.7,16.9,37.7,37.7S60.5,77.9,39.7,77.9z M39.7,3.3
			c-20.4,0-37,16.6-37,37c0,20.4,16.6,37,37,37c20.4,0,37-16.6,37-37C76.8,19.9,60.2,3.3,39.7,3.3z"/>
		<path d="M39.7,79.2c-21.5,0-39-17.5-39-39c0-21.5,17.5-39,39-39c21.5,0,39,17.5,39,39C78.7,61.7,61.2,79.2,39.7,79.2z M39.7,4.6
			C20.1,4.6,4,20.6,4,40.3C4,60,20.1,76,39.7,76c19.7,0,35.7-16,35.7-35.7C75.5,20.6,59.4,4.6,39.7,4.6z"/>
	</g>
</g>
<path class="st1" d="M59,56.8c4.4-4.1,7.5-10.4,7.5-17.3c0-6.9-2.4-12.2-7.5-17.3l3.3-3c7.2,6.5,9.5,13.3,9.5,20.3
	c0,6.9-2.3,14.1-9.5,20.3L59,56.8z"/>
<g>
	<g>
		<g>
			<path d="M33.3,33.3c-2.1-1.3-4.9-1-6.7,0.8c-2.1,2.1-2.1,5.6,0,7.7l5.8,5.7c0.3,0.3,0.6,0.4,1,0.4c0.4,0,0.7-0.1,1-0.4l5.7-5.7
				c2.1-2.1,2.1-5.6,0-7.7C38.2,32.2,35.4,32,33.3,33.3L33.3,33.3z M38.1,39.8l-4.8,4.8l-4.8-4.8c-1-1-1-2.7,0-3.8
				c0.5-0.5,1.2-0.8,1.9-0.8c0.7,0,1.4,0.3,1.9,0.8c0.5,0.5,1.4,0.5,2,0c1-1,2.7-1,3.8,0C39.1,37.1,39.1,38.8,38.1,39.8L38.1,39.8z
				 M38.1,39.8"/>
			<path d="M33.3,48.4c-0.5,0-1-0.2-1.3-0.6l-5.7-5.7c-2.3-2.3-2.3-6.1,0-8.4c1.1-1.1,2.6-1.7,4.2-1.7c1,0,2,0.3,2.9,0.7
				c0.9-0.5,1.9-0.7,2.9-0.7c1.6,0,3.1,0.6,4.2,1.7c2.3,2.3,2.3,6.1,0,8.4l-5.8,5.8C34.3,48.2,33.8,48.4,33.3,48.4z M30.4,33
				c-1.3,0-2.6,0.5-3.5,1.4c-1.9,1.9-1.9,5.1,0,7l5.8,5.8c0.3,0.3,0.9,0.3,1.3,0l5.8-5.8c1.9-1.9,1.9-5.1,0-7
				c-0.9-0.9-2.2-1.4-3.5-1.4c-0.9,0-1.8,0.3-2.6,0.7l-0.3,0.2L33,33.7C32.2,33.2,31.3,33,30.4,33z M33.3,45.3l-5.1-5.1
				c-0.6-0.6-0.9-1.4-0.9-2.2c0-0.8,0.3-1.6,0.9-2.2c1.2-1.2,3.3-1.2,4.5,0c0.3,0.3,0.9,0.3,1.3,0c1.2-1.2,3.3-1.2,4.5,0
				c0.6,0.6,0.9,1.4,0.9,2.2c0,0.8-0.3,1.6-0.9,2.2L33.3,45.3z M30.4,35.7c-0.6,0-1.1,0.2-1.5,0.6c-0.4,0.4-0.6,1-0.6,1.5
				c0,0.6,0.2,1.1,0.6,1.5l4.4,4.4l4.4-4.4c0.4-0.4,0.6-1,0.6-1.5c0-0.6-0.2-1.1-0.6-1.5c-0.8-0.8-2.3-0.8-3.1,0
				c-0.7,0.7-2,0.7-2.7,0C31.5,36,31,35.7,30.4,35.7z"/>
		</g>
		<g>
			<path d="M58.3,42c-0.1-1.2-0.6-2.3-1.5-3l-3.3-2.7l2.6-4.1c0.6-1,0.8-2.1,0.5-3.2c-0.3-1.1-0.9-2-1.9-2.6l-6.2-3.7v-2.5
				c0-2.3-1.9-4.2-4.2-4.2H22.2c-2.3,0-4.2,1.9-4.2,4.2v39.8c0,2.3,1.9,4.2,4.2,4.2h22.2c2.3,0,4.2-1.9,4.2-4.2v-6.4l8.5-8.5
				C57.9,44.3,58.4,43.2,58.3,42L58.3,42z M53.3,28.8c0.3,0.2,0.5,0.5,0.6,0.9c0.1,0.4,0,0.7-0.2,1.1L48.6,39V26L53.3,28.8z
				 M45.8,60.1c0,0.8-0.6,1.4-1.4,1.4H22.2c-0.8,0-1.4-0.6-1.4-1.4V20.3c0-0.8,0.6-1.4,1.4-1.4h22.2c0.8,0,1.4,0.6,1.4,1.4V60.1z
				 M55.1,43.2l-6.6,6.6v-5.6l3.5-5.6l3,2.5c0.3,0.3,0.5,0.6,0.5,1C55.6,42.6,55.4,42.9,55.1,43.2L55.1,43.2z M55.1,43.2"/>
			<path d="M44.4,64.7H22.2c-2.6,0-4.7-2.1-4.7-4.7V20.3c0-2.6,2.1-4.7,4.7-4.7h22.2c2.6,0,4.7,2.1,4.7,4.7v2.2L55,26
				c1.1,0.6,1.8,1.7,2.1,2.9c0.3,1.2,0.1,2.5-0.6,3.6l-2.3,3.7l2.9,2.5c1,0.8,1.6,2.1,1.7,3.4c0.1,1.3-0.4,2.6-1.4,3.5l-8.4,8.4v6.2
				C49.1,62.7,47,64.7,44.4,64.7z M22.2,16.6c-2,0-3.7,1.6-3.7,3.7v39.8c0,2,1.6,3.7,3.7,3.7h22.2c2,0,3.7-1.6,3.7-3.7v-6.6l8.7-8.7
				c0.7-0.7,1.1-1.7,1.1-2.8c0-1-0.5-2-1.3-2.6l-3.6-3l2.8-4.4c0.5-0.8,0.7-1.8,0.5-2.8c-0.2-1-0.8-1.8-1.7-2.3L48.1,23v-2.7
				c0-2-1.6-3.7-3.7-3.7H22.2z M44.4,62H22.2c-1,0-1.9-0.8-1.9-1.9V20.3c0-1,0.8-1.9,1.9-1.9h22.2c1,0,1.9,0.8,1.9,1.9v39.8
				C46.3,61.1,45.4,62,44.4,62z M22.2,19.4c-0.5,0-0.9,0.4-0.9,0.9v39.8c0,0.5,0.4,0.9,0.9,0.9h22.2c0.5,0,0.9-0.4,0.9-0.9V20.3
				c0-0.5-0.4-0.9-0.9-0.9H22.2z M48.1,51v-6.9l3.9-6.2l3.4,2.9c0.4,0.3,0.7,0.8,0.7,1.4c0,0.5-0.2,1-0.5,1.4L48.1,51z M49.1,44.4
				v4.2l5.7-5.7c0.2-0.2,0.3-0.4,0.3-0.7c0-0.3-0.1-0.5-0.3-0.6l-2.6-2.1L49.1,44.4z M48.1,40.7V25.1l5.5,3.3
				c0.4,0.3,0.7,0.7,0.9,1.2c0.1,0.5,0,1-0.2,1.4L48.1,40.7z M49.1,26.9v10.4l4.3-6.8c0.1-0.2,0.2-0.4,0.1-0.7
				c-0.1-0.2-0.2-0.4-0.4-0.6L49.1,26.9z"/>
		</g>
	</g>
</g>
</svg>
