<?xml version="1.0" encoding="utf-8"?>
<!-- Generator: Adobe Illustrator 19.2.1, SVG Export Plug-In . SVG Version: 6.00 Build 0)  -->
<svg version="1.1" id="Layer_1" xmlns="http://www.w3.org/2000/svg" xmlns:xlink="http://www.w3.org/1999/xlink" x="0px" y="0px"
	 viewBox="0 0 79.9 79.8" style="enable-background:new 0 0 79.9 79.8;" xml:space="preserve">
<style type="text/css">
	.st0{fill:#FFFFFF;}
	.st1{fill:#C61D23;}
</style>
<g>
	<g>
		<circle class="st0" cx="39.8" cy="40.3" r="37.3"/>
		<path d="M39.8,78.9c-21.3,0-38.6-17.3-38.6-38.6C1.2,19,18.5,1.6,39.8,1.6S78.5,19,78.5,40.3C78.5,61.6,61.1,78.9,39.8,78.9z
			 M39.8,4.2c-19.9,0-36,16.2-36,36c0,19.9,16.2,36,36,36c19.9,0,36-16.2,36-36C75.9,20.4,59.7,4.2,39.8,4.2z"/>
	</g>
	<g>
		<path d="M39.8,77.9C19.1,77.9,2.2,61,2.2,40.3S19.1,2.6,39.8,2.6c20.8,0,37.7,16.9,37.7,37.7S60.6,77.9,39.8,77.9z M39.8,3.3
			c-20.4,0-37,16.6-37,37c0,20.4,16.6,37,37,37c20.4,0,37-16.6,37-37C76.8,19.9,60.2,3.3,39.8,3.3z"/>
		<path d="M39.8,79.2c-21.5,0-39-17.5-39-39c0-21.5,17.5-39,39-39s39,17.5,39,39C78.8,61.7,61.3,79.2,39.8,79.2z M39.8,4.6
			c-19.7,0-35.7,16-35.7,35.7C4.1,60,20.1,76,39.8,76c19.7,0,35.7-16,35.7-35.7C75.5,20.6,59.5,4.6,39.8,4.6z"/>
	</g>
</g>
<path class="st1" d="M59.1,56.8c4.4-4.1,7.5-10.4,7.5-17.3c0-6.9-2.4-12.2-7.5-17.3l3.3-3c7.2,6.5,9.5,13.3,9.5,20.3
	c0,6.9-2.4,14.1-9.5,20.3L59.1,56.8z"/>
<g>
	<g>
		<path d="M58.5,47.1c-1-0.7-2.4-0.4-3.1,0.7c-2.5,4.2-9.8,7.1-17.7,7.1c-4.1,0-7.9-0.8-11.1-2.1c2.1-1.4,3.5-3.9,3.5-6.8
			c0-4.4-3.4-8.1-7.5-8.1c-4.1,0-7.5,3.6-7.5,8.1c0,1.8,0.6,3.5,1.5,4.8c3.5,5.4,11.8,8.8,21.2,8.8c9.7,0,18.1-3.6,21.5-9.3
			C59.9,49.3,59.5,47.8,58.5,47.1L58.5,47.1z M22.6,42.8c1.7,0,3.1,1.5,3.1,3.3c0,1.8-1.4,3.3-3.1,3.3c-0.9,0-1.8-0.4-2.3-1.1
			c-0.1-0.1-0.8-1-0.8-2.2C19.5,44.3,20.9,42.8,22.6,42.8L22.6,42.8z M22.6,42.8"/>
		<path d="M16.1,34.1c1,0.7,2.4,0.4,3.1-0.7c2.5-4.2,9.8-7.1,17.7-7.1c4.1,0,7.9,0.8,11.1,2.1c-2.1,1.4-3.5,3.9-3.5,6.8
			c0,4.4,3.4,8.1,7.5,8.1c4.1,0,7.5-3.6,7.5-8.1c0-1.8-0.6-3.5-1.5-4.8c-3.5-5.4-11.8-8.8-21.2-8.8c-9.7,0-18.1,3.6-21.5,9.3
			C14.7,31.9,15,33.4,16.1,34.1L16.1,34.1z M52,38.4c-1.7,0-3.1-1.5-3.1-3.3c0-1.8,1.4-3.3,3.1-3.3c0.9,0,1.8,0.4,2.3,1.1
			c0.1,0.1,0.8,1,0.8,2.2C55.1,37,53.7,38.4,52,38.4L52,38.4z M52,38.4"/>
	</g>
</g>
</svg>
