<?xml version="1.0" encoding="utf-8"?>
<!-- Generator: Adobe Illustrator 19.2.1, SVG Export Plug-In . SVG Version: 6.00 Build 0)  -->
<svg version="1.1" id="Layer_1" xmlns="http://www.w3.org/2000/svg" xmlns:xlink="http://www.w3.org/1999/xlink" x="0px" y="0px"
	 viewBox="0 0 78.2 78.1" style="enable-background:new 0 0 78.2 78.1;" xml:space="preserve">
<style type="text/css">
	.st0{fill:#FFFFFF;}
	.st1{fill:#C61D23;}
</style>
<g>
	<g>
		<circle class="st0" cx="39.2" cy="39.1" r="37.3"/>
		<path d="M39.2,77.7c-21.3,0-38.6-17.3-38.6-38.6c0-21.3,17.3-38.6,38.6-38.6s38.6,17.3,38.6,38.6C77.8,60.4,60.5,77.7,39.2,77.7z
			 M39.2,3c-19.9,0-36,16.2-36,36c0,19.9,16.2,36,36,36c19.9,0,36-16.2,36-36C75.2,19.2,59.1,3,39.2,3z"/>
	</g>
	<g>
		<path d="M39.2,76.7c-20.8,0-37.7-16.9-37.7-37.7c0-20.8,16.9-37.7,37.7-37.7c20.8,0,37.7,16.9,37.7,37.7
			C76.9,59.8,60,76.7,39.2,76.7z M39.2,2.1c-20.4,0-37,16.6-37,37c0,20.4,16.6,37,37,37c20.4,0,37-16.6,37-37
			C76.2,18.7,59.6,2.1,39.2,2.1z"/>
		<path d="M39.2,78c-21.5,0-39-17.5-39-39c0-21.5,17.5-39,39-39c21.5,0,39,17.5,39,39C78.2,60.6,60.7,78,39.2,78z M39.2,3.4
			c-19.7,0-35.7,16-35.7,35.7c0,19.7,16,35.7,35.7,35.7c19.7,0,35.7-16,35.7-35.7C74.9,19.4,58.9,3.4,39.2,3.4z"/>
	</g>
</g>
<path class="st1" d="M58.5,55.6c4.4-4.1,7.5-10.4,7.5-17.3c0-6.9-2.3-12.2-7.5-17.3l3.3-3c7.2,6.5,9.5,13.3,9.5,20.3
	c0,6.9-2.4,14.1-9.5,20.3L58.5,55.6z"/>
<g>
	<path d="M53.7,32.9c0-5-4.3-9.1-9.6-9.1c-1.9,0-3.8,0.5-5.4,1.6c-0.9,0.5-1.1,1.6-0.5,2.4c0.6,0.8,1.7,1,2.6,0.5
		c1-0.6,2.2-0.9,3.3-0.9c3.3,0,5.9,2.5,5.9,5.6c0,0.9-0.2,1.8-0.7,2.6c-0.5,0.9-0.1,1.9,0.8,2.3c0.2,0.1,0.6,0.2,0.9,0.2
		c0.7,0,1.3-0.3,1.7-0.9C53.3,35.8,53.7,34.3,53.7,32.9L53.7,32.9z M53.7,32.9"/>
	<path d="M44.1,21.1c1,0,1.9-0.8,1.9-1.7v-3.3c0-1-0.8-1.7-1.9-1.7c-1.1,0-1.9,0.8-1.9,1.7v3.3C42.2,20.3,43,21.1,44.1,21.1
		L44.1,21.1z M44.1,21.1"/>
	<path d="M62,31.1h-3.5c-1,0-1.9,0.8-1.9,1.7c0,1,0.8,1.7,1.9,1.7H62c1.1,0,1.9-0.8,1.9-1.7C63.8,32,63,31.1,62,31.1L62,31.1z
		 M62,31.1"/>
	<path d="M54.3,25c0.5,0,0.9-0.2,1.3-0.5l2.5-2.3c0.7-0.7,0.7-1.8,0-2.4c-0.7-0.7-1.9-0.7-2.6,0L53,22.1c-0.7,0.7-0.7,1.8,0,2.4
		C53.3,24.9,53.8,25,54.3,25L54.3,25z M54.3,25"/>
	<path d="M55.6,41.2c-0.7-0.7-1.9-0.7-2.6,0c-0.7,0.7-0.7,1.8,0,2.4l2.5,2.3c0.4,0.3,0.9,0.5,1.3,0.5c0.5,0,0.9-0.2,1.3-0.5
		c0.7-0.7,0.7-1.8,0-2.4L55.6,41.2z M55.6,41.2"/>
	<path d="M32.5,24.6c0.4,0.3,0.9,0.5,1.3,0.5c0.5,0,0.9-0.2,1.3-0.5c0.7-0.7,0.7-1.8,0-2.4l-2.5-2.3c-0.7-0.7-1.9-0.7-2.6,0
		c-0.7,0.7-0.7,1.8,0,2.4L32.5,24.6z M32.5,24.6"/>
	<path d="M22.2,45.8c-1.2-0.3-2.3,0.3-2.7,1.5l-3.5,12c-0.3,1.1,0.4,2.2,1.5,2.5c0.2,0.1,0.4,0.1,0.6,0.1c0.9,0,1.9-0.6,2.1-1.5
		l3.5-12C24.1,47.3,23.4,46.1,22.2,45.8L22.2,45.8z M22.2,45.8"/>
	<path d="M28.2,50.6c-1.2-0.3-2.3,0.3-2.7,1.5l-3.5,12c-0.3,1.1,0.4,2.2,1.5,2.5c0.2,0.1,0.4,0.1,0.6,0.1c0.9,0,1.9-0.6,2.1-1.5
		l3.5-12C30,52,29.3,50.9,28.2,50.6L28.2,50.6z M28.2,50.6"/>
	<path d="M36.9,45.8c-1.2-0.3-2.3,0.3-2.7,1.5l-3.5,12c-0.3,1.1,0.4,2.2,1.5,2.5c0.2,0.1,0.4,0.1,0.6,0.1c0.9,0,1.8-0.6,2.1-1.5
		l3.5-12C38.7,47.3,38,46.1,36.9,45.8L36.9,45.8z M36.9,45.8"/>
	<path d="M39.6,36.1h-0.7c-0.2-0.9-0.6-2-1.2-3.1c-2-3.6-5.7-5.6-10.2-5.6c-4.6,0-8.2,2-10.2,5.6c-0.6,1.2-1,2.3-1.2,3.2
		c-4.9,0.8-8.1,4.4-8.1,9.1c0,3,1.5,5.8,4.1,7.5c1.1,0.8,2.7,0.5,3.5-0.5c0.8-1,0.6-2.5-0.6-3.2c-1.2-0.8-2-2.2-2-3.7
		c0-2.8,2.2-4.6,5.4-4.6c1.4,0,2.4-1,2.5-2.3c0-0.6,0.4-6.4,6.7-6.4c2.7,0,4.6,1,5.8,3c1,1.7,1.1,3.5,1.1,3.5
		c0.1,1.2,1.2,2.2,2.5,2.2h2.8c3.2,0,5.4,1.9,5.4,4.6c0,2.3-1.6,4.1-4,4.5c-1.4,0.2-2.2,1.5-2,2.7c0.2,1.1,1.2,1.9,2.4,1.9
		c0.2,0,0.3,0,0.5-0.1c4.8-0.9,8-4.6,8-9.1C49.9,40,45.6,36.1,39.6,36.1L39.6,36.1z M39.6,36.1"/>
</g>
</svg>
