<?xml version="1.0" encoding="utf-8"?>
<!-- Generator: Adobe Illustrator 19.2.1, SVG Export Plug-In . SVG Version: 6.00 Build 0)  -->
<svg version="1.1" id="Layer_1" xmlns="http://www.w3.org/2000/svg" xmlns:xlink="http://www.w3.org/1999/xlink" x="0px" y="0px"
	 viewBox="0 0 77.9 77.9" style="enable-background:new 0 0 77.9 77.9;" xml:space="preserve">
<style type="text/css">
	.st0{fill:#FFFFFF;}
	.st1{fill:#C61D23;}
	.st2{clip-path:url(#SVGID_2_);fill:#010101;}
</style>
<g>
	<g>
		<circle class="st0" cx="39" cy="39" r="37.3"/>
		<path d="M39,77.6C17.7,77.6,0.3,60.3,0.3,39C0.3,17.7,17.7,0.3,39,0.3c21.3,0,38.6,17.3,38.6,38.6C77.6,60.3,60.3,77.6,39,77.6z
			 M39,2.9c-19.9,0-36,16.2-36,36c0,19.9,16.2,36,36,36c19.9,0,36-16.2,36-36C75,19.1,58.8,2.9,39,2.9z"/>
	</g>
	<g>
		<path d="M39,76.6C18.2,76.6,1.3,59.7,1.3,39C1.3,18.2,18.2,1.3,39,1.3c20.8,0,37.7,16.9,37.7,37.7C76.6,59.7,59.7,76.6,39,76.6z
			 M39,1.9c-20.4,0-37,16.6-37,37c0,20.4,16.6,37,37,37c20.4,0,37-16.6,37-37C76,18.5,59.4,1.9,39,1.9z"/>
		<path d="M39,77.9c-21.5,0-39-17.5-39-39C0,17.5,17.5,0,39,0c21.5,0,39,17.5,39,39C77.9,60.4,60.4,77.9,39,77.9z M39,3.2
			C19.3,3.2,3.2,19.3,3.2,39c0,19.7,16,35.7,35.7,35.7c19.7,0,35.7-16,35.7-35.7C74.7,19.3,58.6,3.2,39,3.2z"/>
	</g>
</g>
<path class="st1" d="M58.2,55.5c4.4-4.1,7.5-10.4,7.5-17.3c0-6.9-2.3-12.2-7.5-17.3l3.3-3c7.2,6.5,9.5,13.3,9.5,20.3
	c0,6.9-2.3,14.1-9.5,20.3L58.2,55.5z"/>
<g>
	<defs>
		<rect id="SVGID_1_" x="13.4" y="12.5" width="47.5" height="55.7"/>
	</defs>
	<clipPath id="SVGID_2_">
		<use xlink:href="#SVGID_1_"  style="overflow:visible;"/>
	</clipPath>
	<path class="st2" d="M58.9,26.3c-1.2-3.2-3-5.9-5.3-8c-4.1-3.8-9.8-5.8-16.6-5.8c-6.8,0-12.5,2-16.6,5.8c-2.3,2.1-4.1,4.8-5.3,8
		c-1.3,3.3-1.9,7.2-1.9,11.6c0,9.4,3,16.6,8.7,20.9c-0.8,3.6-1.8,5.8-1.8,5.8l-1.8,3.7l3.3,0h0c0,0,0,0,0,0c1.1,0,5.9-0.3,9.8-5.4
		c1.7,0.3,3.6,0.5,5.5,0.5c6.8,0,12.5-2,16.6-5.8c2.3-2.1,4.1-4.8,5.3-8c1.3-3.3,1.9-7.2,1.9-11.6S60.2,29.6,58.9,26.3 M51.5,53.6
		c-3.4,3.2-8.4,4.9-14.4,4.9c-2.1,0-4-0.2-5.8-0.6l-1-0.2l-0.7,1c-1.5,2.2-3.2,3.4-4.6,4c0.4-1.3,0.8-2.9,1.1-4.6l0.3-1.8L25,55.4
		c-5.3-3.4-7.9-9.3-7.9-17.5c0-6.9,1.9-12.2,5.6-15.7c3.4-3.2,8.4-4.9,14.4-4.9s11,1.7,14.4,4.9c3.7,3.5,5.6,8.8,5.6,15.7
		C57.1,44.8,55.2,50.1,51.5,53.6 M47,30.7c0.4,3.5-1.3,6.9-4.4,8.9c-2,1.3-3.3,3.4-3.3,5.6h-5.2c0-3.8,2.1-7.4,5.5-9.6
		c1.6-1,2.4-2.7,2.2-4.4c-0.3-2.2-2.2-3.9-4.5-4.2c-1.5-0.2-3,0.3-4.1,1.2c-1.1,0.9-1.7,2.1-1.7,3.5h-5.2c0-2.7,1.2-5.2,3.4-7
		c2.2-1.8,5.1-2.7,8.1-2.4C42.7,22.8,46.5,26.4,47,30.7 M34.3,48.9h5.2v4.8h-5.2V48.9z"/>
</g>
</svg>
