<svg id="Layer_1" data-name="Layer 1" xmlns="http://www.w3.org/2000/svg" viewBox="0 0 77.91 77.91">
  <defs>
    <style>
      .cls-1 {
        fill: #fff;
      }

      .cls-2 {
        fill: #231f20;
      }

      .cls-3 {
        fill: #c61d23;
      }

      .cls-4, .cls-5 {
        fill: #010101;
      }

      .cls-5 {
        stroke: #000;
        stroke-miterlimit: 10;
        stroke-width: 2px;
      }
    </style>
  </defs>
  <title>lifestyle</title>
  <g>
    <g>
      <circle class="cls-1" cx="38.95" cy="38.95" r="37.33"/>
      <path class="cls-2" d="M39.09,77.74A38.63,38.63,0,1,1,77.72,39.11,38.67,38.67,0,0,1,39.09,77.74Zm0-74.66a36,36,0,1,0,36,36A36.07,36.07,0,0,0,39.09,3.07Z" transform="translate(-0.13 -0.16)"/>
    </g>
    <g>
      <path class="cls-2" d="M39.09,76.76A37.66,37.66,0,1,1,76.74,39.11,37.7,37.7,0,0,1,39.09,76.76Zm0-74.66a37,37,0,1,0,37,37A37,37,0,0,0,39.09,2.1Z" transform="translate(-0.13 -0.16)"/>
      <path class="cls-2" d="M39.09,78.06a39,39,0,1,1,39-39A39,39,0,0,1,39.09,78.06Zm0-74.66A35.71,35.71,0,1,0,74.8,39.11,35.75,35.75,0,0,0,39.09,3.4Z" transform="translate(-0.13 -0.16)"/>
    </g>
  </g>
  <path class="cls-3" d="M58.36,55.62a23.85,23.85,0,0,0,7.52-17.29c0-6.91-2.35-12.22-7.47-17.29l3.34-3c7.19,6.49,9.54,13.35,9.54,20.26a25.71,25.71,0,0,1-9.49,20.25Z" transform="translate(-0.13 -0.16)"/>
  <path class="cls-4" d="M50.68,40.39a169.73,169.73,0,0,1,2.18-21.58c0.21-.82-0.13-1.76-1.81-2.41-3.19-1.24-10-1.51-13.46-1.51s-10.26.27-13.46,1.51c-1.69.66-2,1.6-1.81,2.41a169.76,169.76,0,0,1,2.18,21.58c-4.47,1.53-6.92,3.75-6.92,6.31,0,2.4,2.24,4.56,6.3,6.07,7.64,2.85,19.79,2.85,27.43,0,4.06-1.51,6.3-3.67,6.3-6.07C57.6,44.14,55.16,41.92,50.68,40.39ZM37.59,17.23c3.36,0,9,.25,12.08,1.17-3,.92-8.69,1.17-12.08,1.17s-9-.25-12.08-1.17C28.55,17.48,34.21,17.23,37.59,17.23Zm0,4.69c3.8,0,9.32-.28,12.6-1.23A172.6,172.6,0,0,0,48.3,41.6l0,0.1a9.08,9.08,0,0,1-3.32,1,49.93,49.93,0,0,1-15.8-.2,7.15,7.15,0,0,1-2.23-.75l0-.1A172.6,172.6,0,0,0,25,20.69C28.35,21.66,34,21.92,37.59,21.92ZM48.24,44.28q0,1.07,0,2.13a7.82,7.82,0,0,1-2.42.79,50.15,50.15,0,0,1-16.58,0A7.77,7.77,0,0,1,27,46.41q0-1.07,0-2.13a15.75,15.75,0,0,0,2.09.54A53.07,53.07,0,0,0,45.25,45,18,18,0,0,0,48.24,44.28Zm2.25,6.3c-7.12,2.65-18.68,2.65-25.8,0-3-1.11-4.77-2.56-4.77-3.88s1.75-2.74,4.65-3.84q0,1.92,0,3.84c0,1.71,2.36,2.4,4.42,2.81a52,52,0,0,0,17.12,0c2.06-.41,4.42-1.1,4.42-2.81q0-1.92,0-3.84c2.9,1.1,4.65,2.52,4.65,3.84S53.48,49.46,50.49,50.58Z" transform="translate(-0.13 -0.16)"/>
  <path class="cls-5" d="M62.36,31.89a5,5,0,0,0-6.88,0L25.13,63.11a0.81,0.81,0,0,0,1.16,1.13L56.63,33a3.32,3.32,0,0,1,4.58,0,3.24,3.24,0,0,1,0,4.58L59.5,39.33a0.81,0.81,0,0,0,1.15,1.15l1.72-1.72A4.86,4.86,0,0,0,62.36,31.89Z" transform="translate(-0.13 -0.16)"/>
</svg>
