<svg id="Layer_2" data-name="Layer 2" xmlns="http://www.w3.org/2000/svg" viewBox="0 0 306.41 65.77">
  <defs>
    <style>
      .cls-1 {
        fill: #fff;
      }

      .cls-2 {
        fill: #c61d23;
      }
    </style>
  </defs>
  <title>bm_logo_partners</title>
  <g>
    <path class="cls-1" d="M77.19,305.32h8.33v20.14a14.25,14.25,0,0,1,8.62-2.83c9.71,0,15.5,7,15.5,16.59,0,10.72-7.17,17.6-18.62,17.6a28.29,28.29,0,0,1-13.83-3.62V305.32Zm8.33,28.25v13.83a10.35,10.35,0,0,0,5.94,1.67c5.21,0,9.27-3.4,9.27-9.27,0-6.23-3.84-9.34-8.55-9.34A9,9,0,0,0,85.52,333.57Z" transform="translate(-77.19 -305.32)"/>
    <path class="cls-1" d="M120.66,306.84a4.79,4.79,0,0,1,4.78,4.85,4.89,4.89,0,0,1-4.78,5.21,5,5,0,0,1-5.21-5.21C115.44,308.73,117.83,306.84,120.66,306.84Zm-4.35,16.59h8.33V356h-8.33V323.43Z" transform="translate(-77.19 -305.32)"/>
    <path class="cls-1" d="M148,371.09a21.77,21.77,0,0,1-14-4.64l4.06-6.45a18.87,18.87,0,0,0,10.5,3.33c5.21,0,7.68-2.39,7.68-7v-2a15.33,15.33,0,0,1-8,2.46c-10.43,0-16.95-6.81-16.95-17.09,0-9.49,7.68-17.09,18.69-17.09a29.29,29.29,0,0,1,14.63,3.91v29C164.63,366.75,157.24,371.09,148,371.09Zm8.26-25V332a14.56,14.56,0,0,0-6.37-1.59c-6.37,0-9.7,4.49-9.7,9.63s3.55,9,9.13,9A9.91,9.91,0,0,0,156.3,346.1Z" transform="translate(-77.19 -305.32)"/>
    <path class="cls-1" d="M221.49,356h-8.33V336.9c0-4.06-1.67-6.23-5.58-6.23a7.34,7.34,0,0,0-6.74,3.77c0,0.51.07,1.67,0.07,2.39V356h-8.33v-19.7c0-3.4-1.88-5.65-5.43-5.65a7.9,7.9,0,0,0-6.81,3.48V356H172V323.43h8.33v3.62a13.78,13.78,0,0,1,10.21-4.2c5,0,8.33,2.25,9.49,5.21a13.27,13.27,0,0,1,11-5.21c5.94,0,10.43,3,10.43,11.88V356Z" transform="translate(-77.19 -305.32)"/>
    <path class="cls-1" d="M233.73,306.84a4.79,4.79,0,0,1,4.78,4.85,4.89,4.89,0,0,1-4.78,5.21,5,5,0,0,1-5.21-5.21C228.52,308.73,230.91,306.84,233.73,306.84Zm-4.35,16.59h8.33V356h-8.33V323.43Z" transform="translate(-77.19 -305.32)"/>
    <path class="cls-1" d="M246.41,323.43h8.33v3.19a8.36,8.36,0,0,1,7.46-3.77c2.68,0,4,.43,5.07,1.23l-3,7.82a6.94,6.94,0,0,0-4.2-1.23,5.62,5.62,0,0,0-5.36,3.48V356h-8.33V323.43Z" transform="translate(-77.19 -305.32)"/>
    <path class="cls-2" d="M265.61,366.38a36.76,36.76,0,0,0,11.59-26.66c0-10.65-3.62-18.83-11.52-26.66l5.14-4.56c11.08,10,14.7,20.57,14.7,31.22s-3.62,21.73-14.63,31.22Z" transform="translate(-77.19 -305.32)"/>
    <path class="cls-1" d="M291.25,323.43h8.33v3.26a13.1,13.1,0,0,1,9.34-3.84c8,0,13.4,3.84,13.4,14.05V356H314V338.35c0-5.21-2.68-7.68-7.32-7.68a9.76,9.76,0,0,0-7.1,3.11V356h-8.33V323.43Z" transform="translate(-77.19 -305.32)"/>
    <path class="cls-1" d="M357,352.77c-3.26,2.75-7.9,4.06-12.46,4.06C334,356.82,327,350,327,339.73c0-9.49,6.52-17.09,17.24-17.09,8.4,0,15.43,6,15.43,15.14a15,15,0,0,1-.51,4.49H335.58c0.72,4.92,4.64,7.61,9.78,7.61a15.08,15.08,0,0,0,9.2-3Zm-21.66-16.08h16c0.07-4-2.68-7.1-7.46-7.1C338.84,329.59,336.16,332.41,335.29,336.69Z" transform="translate(-77.19 -305.32)"/>
    <path class="cls-1" d="M363.83,314.38h8.33v9.05h10.5v7.82h-10.5v11.88c0,3.55,1.16,5.87,3.91,5.87a8.1,8.1,0,0,0,5-1.88l2.54,6.45a15.68,15.68,0,0,1-9.63,3.19c-7.39,0-10.14-4.78-10.14-13.11V314.38Z" transform="translate(-77.19 -305.32)"/>
  </g>
</svg>
