<?xml version="1.0" encoding="utf-8"?>
<!-- Generator: Adobe Illustrator 19.2.1, SVG Export Plug-In . SVG Version: 6.00 Build 0)  -->
<svg version="1.1" id="Layer_1" xmlns="http://www.w3.org/2000/svg" xmlns:xlink="http://www.w3.org/1999/xlink" x="0px" y="0px"
	 viewBox="0 0 249.9 17.1" style="enable-background:new 0 0 249.9 17.1;" xml:space="preserve">
<g>
	<path d="M2.2,6h4.6c0-0.5-0.1-0.9-0.3-1.2c-0.2-0.4-0.4-0.7-0.6-1c-0.3-0.3-0.6-0.5-1-0.6C4.5,3,4.1,2.9,3.6,2.9C3,2.9,2.5,3,2,3.1
		C1.6,3.3,1.2,3.4,0.9,3.6l-0.5-2c0.4-0.2,0.9-0.4,1.5-0.5s1.2-0.2,1.8-0.2c0.8,0,1.5,0.1,2.2,0.3s1.2,0.6,1.7,1.1
		c0.5,0.5,0.9,1.1,1.1,1.9C9,5,9.1,5.9,9.1,7.1c0,1.2-0.2,2.2-0.5,3c-0.3,0.8-0.7,1.4-1.3,1.9s-1.1,0.8-1.8,1s-1.4,0.3-2.2,0.3
		c-0.6,0-1.2-0.1-1.8-0.2c-0.5-0.1-0.9-0.2-1.3-0.4l0.6-2C1.2,10.8,1.6,10.9,2,11c0.4,0.1,1,0.2,1.5,0.2c0.4,0,0.9-0.1,1.2-0.2
		c0.4-0.1,0.7-0.3,1-0.6s0.5-0.6,0.7-1C6.6,9,6.8,8.5,6.8,7.9H2.2V6z"/>
	<path d="M17,6.5h-2.4V13h-2.3V6.5H9.9v-2H17V6.5z"/>
	<path d="M17.4,8.8c0-1.4,0.4-2.5,1.1-3.3c0.7-0.8,1.7-1.2,3-1.2c0.7,0,1.3,0.1,1.8,0.3s0.9,0.5,1.2,0.9c0.3,0.4,0.6,0.9,0.7,1.4
		c0.2,0.6,0.2,1.2,0.2,1.8c0,1.4-0.3,2.5-1,3.3c-0.7,0.8-1.7,1.2-2.9,1.2c-0.7,0-1.3-0.1-1.8-0.3c-0.5-0.2-0.9-0.5-1.2-0.9
		c-0.3-0.4-0.6-0.9-0.7-1.4C17.5,10,17.4,9.4,17.4,8.8z M19.7,8.8c0,0.4,0,0.7,0.1,1s0.2,0.6,0.3,0.8c0.1,0.2,0.3,0.4,0.5,0.6
		c0.2,0.1,0.5,0.2,0.8,0.2c0.6,0,1-0.2,1.3-0.6c0.3-0.4,0.4-1.1,0.4-2c0-0.8-0.1-1.4-0.4-1.9c-0.3-0.5-0.7-0.7-1.3-0.7
		c-0.5,0-1,0.2-1.3,0.6C19.8,7.2,19.7,7.8,19.7,8.8z"/>
	<path d="M32.9,6.5h-2.4V13h-2.3V6.5h-2.4v-2h7.1V6.5z"/>
	<path d="M39.1,6.1c0.3-0.5,0.7-0.9,1.2-1.1c0.4-0.2,1-0.3,1.6-0.3c1,0,1.9,0.3,2.5,0.9c0.6,0.6,0.9,1.6,0.9,2.9
		c0,1.5-0.3,2.7-1,3.5c-0.7,0.8-1.7,1.2-2.9,1.2c-1.3,0-2.3-0.4-3-1.3c-0.7-0.9-1-2.2-1-4.1c0-1,0.1-1.8,0.2-2.5s0.3-1.3,0.5-1.8
		c0.2-0.5,0.5-0.9,0.7-1.1c0.3-0.3,0.6-0.5,1-0.7c0.4-0.2,0.7-0.3,1.1-0.3c0.4-0.1,0.8-0.1,1.3-0.2c0.6-0.1,1.1-0.1,1.5-0.2
		C44,1,44.3,0.8,44.5,0.6l0.1,2c-0.2,0.2-0.5,0.3-1,0.4c-0.4,0.1-1,0.1-1.7,0.2c-0.4,0-0.8,0.1-1.1,0.2c-0.3,0.1-0.6,0.2-0.9,0.4
		c-0.2,0.2-0.4,0.5-0.6,0.9C39.2,5,39.1,5.5,39.1,6.1L39.1,6.1z M39.5,8.9c0,0.7,0.1,1.3,0.4,1.8c0.3,0.5,0.7,0.7,1.3,0.7
		c0.6,0,1.1-0.2,1.3-0.6c0.3-0.4,0.4-1.1,0.4-1.9c0-0.7-0.1-1.3-0.4-1.7c-0.2-0.4-0.7-0.6-1.2-0.6c-0.6,0-1.1,0.2-1.4,0.6
		C39.7,7.6,39.5,8.1,39.5,8.9z"/>
	<path d="M46.4,8.8c0-1.4,0.4-2.5,1.1-3.3c0.7-0.8,1.7-1.2,3-1.2c0.7,0,1.3,0.1,1.8,0.3s0.9,0.5,1.2,0.9c0.3,0.4,0.6,0.9,0.7,1.4
		c0.2,0.6,0.2,1.2,0.2,1.8c0,1.4-0.3,2.5-1,3.3c-0.7,0.8-1.7,1.2-2.9,1.2c-0.7,0-1.3-0.1-1.8-0.3c-0.5-0.2-0.9-0.5-1.2-0.9
		c-0.3-0.4-0.6-0.9-0.7-1.4C46.5,10,46.4,9.4,46.4,8.8z M48.7,8.8c0,0.4,0,0.7,0.1,1s0.2,0.6,0.3,0.8c0.1,0.2,0.3,0.4,0.5,0.6
		c0.2,0.1,0.5,0.2,0.8,0.2c0.6,0,1-0.2,1.3-0.6c0.3-0.4,0.4-1.1,0.4-2c0-0.8-0.1-1.4-0.4-1.9c-0.3-0.5-0.7-0.7-1.3-0.7
		c-0.5,0-1,0.2-1.3,0.6C48.8,7.2,48.7,7.8,48.7,8.8z"/>
	<path d="M60.5,6.5h-1.7c-0.1,0.8-0.1,1.6-0.2,2.4c-0.1,0.8-0.2,1.5-0.4,2.1s-0.5,1.1-0.8,1.5c-0.3,0.4-0.8,0.6-1.3,0.6
		c-0.7,0-1.1-0.1-1.4-0.3l0.3-1.8c0.2,0.1,0.4,0.1,0.5,0.1c0.2,0,0.4-0.1,0.6-0.3c0.2-0.2,0.3-0.5,0.4-1c0.1-0.5,0.2-1.2,0.3-2
		c0.1-0.9,0.1-2,0.2-3.3h5.8V13h-2.2V6.5z"/>
	<path d="M66.9,7.5c0.3,0,0.5-0.1,0.8-0.1s0.5,0,0.8,0c0.6,0,1.1,0.1,1.5,0.2c0.4,0.1,0.7,0.3,1,0.6c0.3,0.2,0.4,0.5,0.6,0.8
		c0.1,0.3,0.2,0.7,0.2,1c0,1-0.3,1.8-0.9,2.3c-0.6,0.5-1.6,0.8-3.1,0.8c-0.6,0-1.2,0-1.7,0c-0.5,0-0.9-0.1-1.3-0.1V4.5h2.2V7.5z
		 M66.9,11.1c0.3,0.1,0.7,0.1,1,0.1c0.5,0,0.9-0.1,1.2-0.3c0.2-0.2,0.4-0.5,0.4-0.9c0-0.7-0.5-1.1-1.5-1.1c-0.4,0-0.7,0-1,0.1V11.1z
		"/>
	<path d="M73,13V4.5h2.2V11h2.1V4.5h2.2V11h2.1V4.5h2.2V13H73z"/>
	<path d="M85.4,8.8c0-1.4,0.4-2.5,1.1-3.3c0.7-0.8,1.7-1.2,3-1.2c0.7,0,1.3,0.1,1.8,0.3s0.9,0.5,1.2,0.9c0.3,0.4,0.6,0.9,0.7,1.4
		c0.2,0.6,0.2,1.2,0.2,1.8c0,1.4-0.3,2.5-1,3.3c-0.7,0.8-1.7,1.2-2.9,1.2c-0.7,0-1.3-0.1-1.8-0.3c-0.5-0.2-0.9-0.5-1.2-0.9
		c-0.3-0.4-0.6-0.9-0.7-1.4C85.5,10,85.4,9.4,85.4,8.8z M87.7,8.8c0,0.4,0,0.7,0.1,1s0.2,0.6,0.3,0.8c0.1,0.2,0.3,0.4,0.5,0.6
		c0.2,0.1,0.5,0.2,0.8,0.2c0.6,0,1-0.2,1.3-0.6c0.3-0.4,0.4-1.1,0.4-2c0-0.8-0.1-1.4-0.4-1.9c-0.3-0.5-0.7-0.7-1.3-0.7
		c-0.5,0-1,0.2-1.3,0.6C87.8,7.2,87.7,7.8,87.7,8.8z"/>
	<path d="M100.1,9.1l0.1-1.2h-0.1l-0.7,1.2l-3,3.8h-1.4V4.5h2.2v4l-0.1,1.2h0.1l0.7-1.2l3.1-4h1.4V13h-2.2V9.1z M97.7,1
		c0.1,0.4,0.2,0.8,0.4,0.9c0.2,0.2,0.4,0.3,0.7,0.3c0.3,0,0.6-0.1,0.8-0.3c0.2-0.2,0.3-0.5,0.4-0.9l1.7,0.4c-0.1,0.7-0.5,1.3-1,1.6
		c-0.5,0.4-1.2,0.5-1.9,0.5c-0.4,0-0.7,0-1-0.1c-0.3-0.1-0.6-0.2-0.9-0.4c-0.3-0.2-0.5-0.4-0.7-0.7c-0.2-0.3-0.3-0.6-0.4-1L97.7,1z"
		/>
	<path d="M113.6,9.1l0.1-1.2h-0.1l-0.7,1.2l-3,3.8h-1.4V4.5h2.2v4l-0.1,1.2h0.1l0.7-1.2l3.1-4h1.4V13h-2.2V9.1z"/>
	<path d="M127,6.5h-2.7V13h-2.2V4.5h7.1V13H127V6.5z"/>
	<path d="M131.1,4.5h1.6l0.3,1h0.1c0.3-0.4,0.6-0.7,1-1c0.4-0.2,0.9-0.3,1.5-0.3c1.1,0,1.9,0.3,2.4,1s0.8,1.8,0.8,3.3
		c0,0.7-0.1,1.4-0.3,2c-0.2,0.6-0.4,1.1-0.8,1.5s-0.7,0.7-1.2,0.9c-0.5,0.2-1,0.3-1.7,0.3c-0.4,0-0.6,0-0.9-0.1
		c-0.2-0.1-0.5-0.1-0.7-0.2v3.5h-2.2V4.5z M134.9,6.1c-0.4,0-0.8,0.1-1,0.3s-0.4,0.5-0.6,1V11c0.2,0.1,0.3,0.2,0.5,0.3
		c0.2,0.1,0.4,0.1,0.7,0.1c0.6,0,1.1-0.2,1.4-0.7c0.3-0.4,0.5-1.2,0.5-2.2c0-0.7-0.1-1.3-0.4-1.7C135.9,6.3,135.5,6.1,134.9,6.1z"/>
	<path d="M147.1,12.3c-0.3,0.3-0.8,0.5-1.4,0.7c-0.6,0.2-1.2,0.3-1.9,0.3c-1.4,0-2.4-0.4-3-1.2c-0.6-0.8-1-1.9-1-3.3
		c0-1.5,0.4-2.6,1.1-3.4c0.7-0.7,1.7-1.1,3-1.1c0.4,0,0.9,0.1,1.3,0.2c0.4,0.1,0.8,0.3,1.1,0.6s0.6,0.6,0.8,1.1
		c0.2,0.4,0.3,1,0.3,1.6c0,0.2,0,0.5,0,0.8s-0.1,0.6-0.1,0.9h-5.1c0,0.7,0.2,1.3,0.6,1.6c0.3,0.4,0.9,0.5,1.6,0.5
		c0.5,0,0.9-0.1,1.2-0.2c0.4-0.1,0.6-0.3,0.8-0.4L147.1,12.3z M143.9,6c-0.6,0-1,0.2-1.3,0.5c-0.3,0.3-0.4,0.8-0.5,1.4h3.1
		c0-0.6,0-1.1-0.3-1.4C144.8,6.2,144.4,6,143.9,6z"/>
	<path d="M151.7,9.5h-0.6V13h-2.2V4.5h2.2v3.6l0.5-0.2l2-3.4h2.4L154,7.7l-0.9,0.6l1,0.7l2.3,4h-2.5L151.7,9.5z"/>
	<path d="M157.3,4.5h1.6l0.3,1h0.1c0.3-0.4,0.6-0.7,1-1c0.4-0.2,0.9-0.3,1.5-0.3c1.1,0,1.9,0.3,2.4,1s0.8,1.8,0.8,3.3
		c0,0.7-0.1,1.4-0.3,2c-0.2,0.6-0.4,1.1-0.8,1.5s-0.7,0.7-1.2,0.9c-0.5,0.2-1,0.3-1.7,0.3c-0.4,0-0.6,0-0.9-0.1
		c-0.2-0.1-0.5-0.1-0.7-0.2v3.5h-2.2V4.5z M161,6.1c-0.4,0-0.8,0.1-1,0.3s-0.4,0.5-0.6,1V11c0.2,0.1,0.3,0.2,0.5,0.3
		c0.2,0.1,0.4,0.1,0.7,0.1c0.6,0,1.1-0.2,1.4-0.7c0.3-0.4,0.5-1.2,0.5-2.2c0-0.7-0.1-1.3-0.4-1.7C162,6.3,161.6,6.1,161,6.1z"/>
	<path d="M166.4,5c0.5-0.2,1-0.4,1.6-0.5c0.6-0.1,1.3-0.2,2-0.2c0.6,0,1.1,0.1,1.5,0.2c0.4,0.1,0.7,0.3,0.9,0.6
		c0.2,0.3,0.4,0.6,0.5,0.9s0.1,0.8,0.1,1.2c0,0.5,0,1-0.1,1.5c0,0.5-0.1,1-0.1,1.5c0,0.5,0,1,0,1.4s0.1,0.9,0.3,1.3h-1.8l-0.4-1.2
		H171c-0.2,0.4-0.5,0.7-0.9,0.9s-0.9,0.4-1.6,0.4c-0.4,0-0.8-0.1-1.1-0.2s-0.6-0.3-0.8-0.5c-0.2-0.2-0.4-0.5-0.5-0.8
		c-0.1-0.3-0.2-0.6-0.2-1c0-0.5,0.1-1,0.3-1.3s0.6-0.6,1-0.9c0.4-0.2,1-0.4,1.6-0.5c0.6-0.1,1.3-0.1,2-0.1c0.1-0.6,0-1.1-0.1-1.4
		c-0.2-0.3-0.5-0.4-1.1-0.4c-0.4,0-0.9,0-1.4,0.1c-0.5,0.1-0.9,0.2-1.2,0.4L166.4,5z M169.2,11.3c0.4,0,0.8-0.1,1.1-0.3
		s0.5-0.4,0.6-0.6V9.3c-0.4,0-0.7,0-1,0c-0.3,0-0.6,0.1-0.9,0.2s-0.4,0.2-0.6,0.3c-0.1,0.1-0.2,0.3-0.2,0.6c0,0.3,0.1,0.6,0.3,0.7
		S168.9,11.3,169.2,11.3z"/>
	<path d="M180.9,12.5c-0.3,0.2-0.8,0.4-1.2,0.6c-0.5,0.1-1,0.2-1.5,0.2c-0.7,0-1.3-0.1-1.7-0.3s-0.9-0.5-1.1-0.9
		c-0.3-0.4-0.5-0.9-0.6-1.4c-0.1-0.6-0.2-1.2-0.2-1.8c0-1.4,0.3-2.5,1-3.3c0.6-0.8,1.6-1.2,2.8-1.2c0.6,0,1.1,0.1,1.5,0.2
		c0.4,0.1,0.7,0.2,1,0.4l-0.5,1.8c-0.3-0.1-0.5-0.2-0.8-0.3c-0.3-0.1-0.5-0.1-0.9-0.1c-0.6,0-1.1,0.2-1.4,0.6
		c-0.3,0.4-0.5,1-0.5,1.9c0,0.4,0,0.7,0.1,1c0.1,0.3,0.2,0.6,0.4,0.8c0.2,0.2,0.4,0.4,0.6,0.5c0.3,0.1,0.6,0.2,0.9,0.2
		c0.4,0,0.7,0,1-0.1s0.5-0.2,0.7-0.3L180.9,12.5z"/>
	<path d="M187.2,9.7h-2.8V13h-2.2V4.5h2.2v3.2h2.8V4.5h2.2V13h-2.2V9.7z"/>
	<path d="M193.6,7.5c0.3,0,0.5-0.1,0.8-0.1c0.3,0,0.5,0,0.8,0c0.6,0,1.1,0.1,1.4,0.2c0.4,0.1,0.7,0.3,0.9,0.6
		c0.2,0.2,0.4,0.5,0.5,0.8c0.1,0.3,0.2,0.7,0.2,1c0,0.5-0.1,1-0.2,1.3c-0.1,0.4-0.4,0.7-0.7,1c-0.3,0.3-0.7,0.4-1.2,0.6
		c-0.5,0.1-1.1,0.2-1.8,0.2c-0.6,0-1.2,0-1.7,0c-0.5,0-0.9-0.1-1.3-0.1V4.5h2.2V7.5z M193.6,11.1c0.3,0.1,0.7,0.1,1,0.1
		c0.5,0,0.9-0.1,1.1-0.3c0.2-0.2,0.3-0.5,0.3-0.9c0-0.4-0.1-0.6-0.3-0.8s-0.5-0.3-1-0.3c-0.4,0-0.7,0-1,0.1V11.1z M199.2,4.5h2.2V13
		h-2.2V4.5z"/>
	<path d="M208.4,9.1l0.1-1.2h-0.1l-0.7,1.2l-3,3.8h-1.4V4.5h2.2v4l-0.1,1.2h0.1l0.7-1.2l3.1-4h1.4V13h-2.2V9.1z M206.1,1
		c0.1,0.4,0.2,0.8,0.4,0.9c0.2,0.2,0.4,0.3,0.7,0.3c0.3,0,0.6-0.1,0.8-0.3c0.2-0.2,0.3-0.5,0.4-0.9l1.7,0.4c-0.1,0.7-0.5,1.3-1,1.6
		c-0.5,0.4-1.2,0.5-1.9,0.5c-0.4,0-0.7,0-1-0.1c-0.3-0.1-0.6-0.2-0.9-0.4c-0.3-0.2-0.5-0.4-0.7-0.7c-0.2-0.3-0.3-0.6-0.4-1L206.1,1z
		"/>
	<path d="M224.1,9.1l0.1-1.8h-0.1l-0.7,1.5l-1.6,2.6h-0.8l-1.8-2.6l-0.6-1.5h-0.1l0.2,1.8V13h-2V4.5h2.3l2,3.2l0.5,1.1h0.1l0.5-1.1
		l1.8-3.2h2.3V13h-2.1V9.1z"/>
	<path d="M233.3,9.1l0.1-1.2h-0.1l-0.7,1.2l-3,3.8h-1.4V4.5h2.2v4l-0.1,1.2h0.1l0.7-1.2l3.1-4h1.4V13h-2.2V9.1z"/>
	<path d="M237.5,4.5h1.6l0.3,1h0.1c0.3-0.4,0.6-0.7,1-1s0.9-0.3,1.5-0.3c1.1,0,1.9,0.3,2.4,1c0.5,0.7,0.8,1.8,0.8,3.3
		c0,0.7-0.1,1.4-0.3,2c-0.2,0.6-0.4,1.1-0.8,1.5s-0.7,0.7-1.2,0.9c-0.5,0.2-1,0.3-1.7,0.3c-0.4,0-0.6,0-0.9-0.1
		c-0.2-0.1-0.5-0.1-0.7-0.2v3.5h-2.2V4.5z M241.2,6.1c-0.4,0-0.8,0.1-1,0.3c-0.2,0.2-0.4,0.5-0.6,1V11c0.2,0.1,0.3,0.2,0.5,0.3
		c0.2,0.1,0.4,0.1,0.7,0.1c0.6,0,1.1-0.2,1.4-0.7c0.3-0.4,0.5-1.2,0.5-2.2c0-0.7-0.1-1.3-0.4-1.7C242.2,6.3,241.8,6.1,241.2,6.1z"/>
	<path d="M247.1,11.9c0-0.4,0.1-0.7,0.4-0.9s0.6-0.3,1-0.3c0.4,0,0.8,0.1,1,0.3s0.4,0.5,0.4,0.9c0,0.4-0.1,0.7-0.4,1
		c-0.2,0.2-0.6,0.4-1,0.4c-0.4,0-0.7-0.1-1-0.4C247.3,12.6,247.1,12.3,247.1,11.9z M247.4,1.1h2.3v5.6l-0.4,2.8h-1.4l-0.4-2.8V1.1z"
		/>
</g>
</svg>
